<?xml version="1.0" encoding="UTF-8"?>
<svg id="Livello_1" data-name="Livello 1" xmlns="http://www.w3.org/2000/svg" viewBox="0 0 2000 2000">
  <path d="M2001.57,245.36V.16h-922.95c-25.31,25.42-48.45,53.3-69.92,81.92-51.74,68.99-104.54,140.48-152.79,211.62-53.11,78.31-93.81,168.53-140.96,250.71-22.79,39.73-45.86,79.52-74.12,115.57-83.14,106.01-203.76,171.35-317.46,239.01-55.02,32.73-114.09,63.25-155.33,113.09-43.03,52.02-76.61,111.16-96.69,175.74-38.19,122.82-12.47,222.99,28.33,339.2,35.24,100.36,121.61,177.41,209.41,235.4,2.19,2.19,4.39,4.39,7.67,6.58,155.67,100.86,344.23,141.42,513.06,67.97,2.19-1.1,3.29,0,5.48-1.1,50.43-24.12,99.76-47.14,151.29-70.16,23.02-9.87,46.04-17.54,69.07-26.31,193.57-73.74,395.29-72.48,599.03-82.04,83.97-3.94,167.35-9.34,251.34-14.96,32.1-2.15,65.02-7.03,95.05-18.07V326.79c0-20.05-.18-41.47.1-62.67.09-6.29.21-12.56.4-18.76Z" fill="#cb7fff"/>
  <path d="M883.23,1033.42c3.03-5.04,4.84-8.37,5.34-9.77.61-1.7-.7-.57-3.96,3.52" fill="#1d1d1b" stroke="#fff" stroke-miterlimit="10" stroke-width="15"/>
  <path d="M761.29,1341.42c76.22-44.38,152.43-88.76,228.65-133.14" fill="none" stroke="#5d7280" stroke-miterlimit="10" stroke-width="15"/>
  <g>
    <polygon points="1814.09 579.96 1085.98 159.59 1065.15 171.62 1793.25 591.99 1814.09 579.96" fill="#5d7280"/>
    <polygon points="1814.09 1112.46 1814.09 579.96 1793.25 591.99 1793.25 1124.49 1814.09 1112.46" fill="#2c353b"/>
    <g>
      <polygon points="1793.25 1124.49 1065.15 704.12 1065.15 171.62 1793.25 591.99 1793.25 1124.49" fill="#3b4951"/>
      <polygon points="1772.87 604.47 1772.87 1088.51 1085.5 691.66 1085.5 207.61 1772.87 604.47" fill="#fff"/>
      <g id="message3">
        <g>
          <polygon points="1560.98 1225.83 1285.27 1066.64 1285.27 1010.96 1560.98 1170.14 1560.98 1225.83" fill="#ce68ff"/>
          <polygon points="1285.27 1066.64 1285.27 1091.8 1319.91 1086.65 1285.27 1066.64" fill="#ce68ff"/>
        </g>
        <polygon points="1496.18 1169.5 1302.59 1057.73 1302.59 1041.49 1496.18 1153.26 1496.18 1169.5" fill="#fff"/>
      </g>
      <polygon points="1262.16 793.63 1085.53 691.64 1085.53 207.64 1262.16 309.62 1262.16 793.63" fill="#d7daff"/>
      <path d="M1143.41,282.5c0,14.67-10.3,20.61-23,13.28-12.7-7.34-23-25.17-23-39.83s10.3-20.61,23-13.28c12.7,7.34,23,25.17,23,39.83h0Z" fill="#888abf"/>
      <polygon points="1157.67 300.85 1232.18 343.87 1232.18 323.61 1157.67 280.6 1157.67 300.85" fill="#3b4951"/>
      <g>
        <g>
          <path d="M1131.45,344.96c0,10.85-7.62,15.25-17.01,9.83-9.4-5.42-17.01-18.62-17.01-29.48s7.62-15.25,17.01-9.83c9.4,5.42,17.01,18.63,17.01,29.48Z" fill="#6fd450"/>
          <polygon points="1142 358.55 1219.75 403.44 1219.75 388.45 1142 343.56 1142 358.55" fill="#3b4951"/>
        </g>
        <g>
          <path d="M1131.45,400.94c0,10.85-7.62,15.25-17.01,9.83-9.4-5.42-17.01-18.62-17.01-29.48s7.62-15.25,17.01-9.83c9.4,5.42,17.01,18.63,17.01,29.48Z" fill="#69c3fa"/>
          <polygon points="1142 414.53 1200.66 448.4 1200.66 433.41 1142 399.54 1142 414.53" fill="#3b4951"/>
        </g>
        <g>
          <path d="M1131.45,456.92c0,10.85-7.62,15.25-17.01,9.83-9.4-5.42-17.01-18.62-17.01-29.48s7.62-15.25,17.01-9.83c9.4,5.42,17.01,18.62,17.01,29.48Z" fill="#6159ff"/>
          <polygon points="1142 470.51 1237.53 525.67 1237.53 510.67 1142 455.52 1142 470.51" fill="#3b4951"/>
        </g>
        <g>
          <path d="M1131.45,512.9c0,10.85-7.62,15.25-17.01,9.83-9.4-5.42-17.01-18.63-17.01-29.48s7.62-15.25,17.01-9.83c9.4,5.42,17.01,18.62,17.01,29.48Z" fill="#ed484f"/>
          <polygon points="1142 526.49 1203.91 562.23 1203.91 547.24 1142 511.49 1142 526.49" fill="#3b4951"/>
        </g>
        <g>
          <path d="M1131.45,568.87c0,10.85-7.62,15.25-17.01,9.83s-17.01-18.63-17.01-29.48,7.62-15.25,17.01-9.83,17.01,18.62,17.01,29.48Z" fill="#eaa73a"/>
          <polygon points="1142 582.47 1231.19 633.95 1231.19 618.97 1142 567.47 1142 582.47" fill="#3b4951"/>
        </g>
        <g>
          <path d="M1131.45,624.86c0,10.85-7.62,15.25-17.01,9.83-9.4-5.42-17.01-18.63-17.01-29.48s7.62-15.25,17.01-9.83,17.01,18.62,17.01,29.48Z" fill="#de3078"/>
          <polygon points="1142 638.44 1219.75 683.33 1219.75 668.34 1142 623.45 1142 638.44" fill="#3b4951"/>
        </g>
      </g>
      <path d="M1230.83,757.65l-122.19-70.55c-6.2-3.58-11.21-13.17-11.21-21.43h0c0-8.26,5.02-12.06,11.21-8.48l122.19,70.55c6.2,3.57,11.22,13.17,11.22,21.43h0c0,8.26-5.02,12.05-11.22,8.48Z" fill="#aeb2f4"/>
      <path id="send-message-box" d="M1740.26,1044.99l-444.54-256.66c-9.58-5.53-17.35-20.38-17.35-33.15h0c0-12.78,7.77-18.65,17.35-13.12l444.54,256.66c9.58,5.53,17.34,20.38,17.34,33.15h0c0,12.78-7.77,18.65-17.34,13.12Z" fill="#d7daff"/>
      <polygon id="send-button" points="1748.28 1026.49 1725.92 1024.53 1725.92 1002.63 1748.28 1026.49" fill="#3b4951"/>
      <g id="message2">
        <g>
          <polygon points="1560.01 1132.14 1284.3 972.96 1284.3 861.24 1560.01 1020.43 1560.01 1132.14" fill="#ce68ff"/>
          <polygon points="1284.3 972.96 1284.3 998.11 1318.94 992.96 1284.3 972.96" fill="#ce68ff"/>
        </g>
        <g>
          <polygon points="1545.71 1047.32 1301.63 906.4 1301.63 890.16 1545.71 1031.09 1545.71 1047.32" fill="#fff"/>
          <polygon points="1545.71 1076.15 1301.63 935.23 1301.63 918.98 1545.71 1059.9 1545.71 1076.15" fill="#fff"/>
          <polygon points="1495.21 1075.81 1301.63 964.04 1301.63 947.8 1495.21 1059.56 1495.21 1075.81" fill="#fff"/>
        </g>
      </g>
      <g id="message1">
        <g>
          <polygon points="1560.98 980.74 1285.27 821.56 1285.27 765.87 1560.98 925.06 1560.98 980.74" fill="#ce68ff"/>
          <polygon points="1285.27 821.56 1285.27 846.71 1319.91 841.56 1285.27 821.56" fill="#ce68ff"/>
        </g>
        <polygon points="1496.18 924.42 1302.59 812.64 1302.59 796.41 1496.18 908.17 1496.18 924.42" fill="#fff"/>
      </g>
    </g>
  </g>
  <g>
    <polygon points="1332.16 1390.75 604.06 970.38 604.06 994.44 1332.16 1414.81 1332.16 1390.75" fill="#3b4951"/>
    <polygon points="1793.34 1124.49 1332.16 1390.75 1332.16 1414.81 1793.34 1148.55 1793.34 1124.49" fill="#2c353b"/>
    <g>
      <polygon points="1332.17 1390.72 604.07 970.35 1065.23 704.09 1793.33 1124.47 1332.17 1390.72" fill="#5d7280"/>
      <g>
        <g>
          <polygon points="1064.88 773.92 1031.73 754.78 1048.3 745.21 1081.44 764.35 1064.88 773.92" fill="#3b4951"/>
          <polygon points="1107.58 798.58 1074.43 779.44 1091.01 769.88 1124.15 789.01 1107.58 798.58" fill="#3b4951"/>
          <polygon points="1150.29 823.24 1117.15 804.11 1133.72 794.54 1166.86 813.67 1150.29 823.24" fill="#3b4951"/>
          <polygon points="1193.01 847.89 1159.86 828.77 1176.43 819.2 1209.57 838.33 1193.01 847.89" fill="#3b4951"/>
          <polygon points="1235.71 872.55 1202.57 853.42 1219.14 843.85 1252.29 863 1235.71 872.55" fill="#3b4951"/>
          <polygon points="1278.42 897.21 1245.28 878.08 1261.85 868.51 1294.99 887.65 1278.42 897.21" fill="#3b4951"/>
          <polygon points="1321.14 921.88 1287.99 902.74 1304.56 893.17 1337.71 912.31 1321.14 921.88" fill="#3b4951"/>
          <polygon points="1363.84 946.54 1330.7 927.4 1347.27 917.83 1380.42 936.97 1363.84 946.54" fill="#3b4951"/>
          <polygon points="1406.56 971.19 1373.41 952.06 1389.98 942.49 1423.12 961.63 1406.56 971.19" fill="#3b4951"/>
          <polygon points="1449.26 995.85 1416.12 976.71 1432.69 967.14 1465.83 986.28 1449.26 995.85" fill="#3b4951"/>
          <polygon points="1491.97 1020.51 1458.83 1001.37 1475.41 991.81 1508.55 1010.94 1491.97 1020.51" fill="#3b4951"/>
          <polygon points="1534.69 1045.17 1501.54 1026.03 1518.11 1016.47 1551.25 1035.6 1534.69 1045.17" fill="#3b4951"/>
          <polygon points="1577.39 1069.82 1544.26 1050.7 1560.82 1041.13 1593.97 1060.25 1577.39 1069.82" fill="#3b4951"/>
          <polygon points="1620.1 1094.48 1586.96 1075.36 1603.53 1065.79 1636.68 1084.92 1620.1 1094.48" fill="#3b4951"/>
          <polygon points="1662.82 1119.14 1629.67 1100.01 1646.24 1090.44 1679.38 1109.58 1662.82 1119.14" fill="#3b4951"/>
          <polygon points="1705.52 1143.81 1672.39 1124.67 1688.96 1115.1 1722.1 1134.24 1705.52 1143.81" fill="#3b4951"/>
        </g>
        <g>
          <polygon points="1022.39 798.45 989.24 779.31 1022.39 760.18 1055.53 779.31 1022.39 798.45" fill="#3b4951"/>
          <polygon points="1065.1 823.11 1031.96 803.97 1065.1 784.84 1098.23 803.97 1065.1 823.11" fill="#3b4951"/>
          <polygon points="1107.81 847.76 1074.66 828.63 1107.81 809.5 1140.95 828.63 1107.81 847.76" fill="#3b4951"/>
          <polygon points="1150.52 872.42 1117.38 853.29 1150.52 834.16 1183.66 853.29 1150.52 872.42" fill="#3b4951"/>
          <polygon points="1193.23 897.08 1160.09 877.95 1193.23 858.81 1226.37 877.95 1193.23 897.08" fill="#3b4951"/>
          <polygon points="1235.94 921.75 1202.79 902.61 1235.94 883.47 1269.08 902.61 1235.94 921.75" fill="#3b4951"/>
          <polygon points="1278.65 946.41 1245.51 927.27 1278.65 908.13 1311.79 927.27 1278.65 946.41" fill="#3b4951"/>
          <polygon points="1321.37 971.06 1288.22 951.92 1321.37 932.8 1354.5 951.92 1321.37 971.06" fill="#3b4951"/>
          <polygon points="1364.07 995.72 1330.92 976.58 1364.07 957.45 1397.21 976.58 1364.07 995.72" fill="#3b4951"/>
          <polygon points="1406.78 1020.38 1373.64 1001.24 1406.78 982.11 1439.93 1001.24 1406.78 1020.38" fill="#3b4951"/>
          <polygon points="1449.49 1045.04 1416.35 1025.9 1449.49 1006.77 1482.63 1025.9 1449.49 1045.04" fill="#3b4951"/>
          <polygon points="1492.2 1069.69 1459.06 1050.56 1492.2 1031.43 1525.34 1050.56 1492.2 1069.69" fill="#3b4951"/>
          <polygon points="1534.91 1094.35 1501.77 1075.22 1534.91 1056.09 1568.06 1075.22 1534.91 1094.35" fill="#3b4951"/>
          <polygon points="1577.62 1119.01 1544.48 1099.88 1577.62 1080.74 1610.76 1099.88 1577.62 1119.01" fill="#3b4951"/>
          <polygon points="1620.33 1143.67 1587.19 1124.54 1620.33 1105.4 1653.47 1124.54 1620.33 1143.67" fill="#3b4951"/>
          <polygon points="1663.05 1168.33 1629.9 1149.2 1663.05 1130.06 1696.19 1149.2 1663.05 1168.33" fill="#3b4951"/>
        </g>
        <g>
          <polygon points="979.9 822.97 946.76 803.84 979.9 784.71 1013.05 803.84 979.9 822.97" fill="#3b4951"/>
          <polygon points="1022.62 847.63 989.47 828.5 1022.62 809.36 1055.76 828.5 1022.62 847.63" fill="#3b4951"/>
          <polygon points="1065.33 872.29 1032.19 853.16 1065.33 834.02 1098.46 853.16 1065.33 872.29" fill="#3b4951"/>
          <polygon points="1108.03 896.95 1074.89 877.82 1108.03 858.68 1141.18 877.82 1108.03 896.95" fill="#3b4951"/>
          <polygon points="1150.75 921.61 1117.61 902.48 1150.75 883.34 1183.89 902.48 1150.75 921.61" fill="#3b4951"/>
          <polygon points="1193.46 946.27 1160.32 927.14 1193.46 908 1226.6 927.14 1193.46 946.27" fill="#3b4951"/>
          <polygon points="1236.17 970.93 1203.02 951.79 1236.17 932.66 1269.31 951.79 1236.17 970.93" fill="#3b4951"/>
          <polygon points="1278.88 995.59 1245.74 976.45 1278.88 957.32 1312.02 976.45 1278.88 995.59" fill="#3b4951"/>
          <polygon points="1321.59 1020.25 1288.45 1001.11 1321.59 981.98 1354.73 1001.11 1321.59 1020.25" fill="#3b4951"/>
          <polygon points="1364.3 1044.9 1331.15 1025.77 1364.3 1006.64 1397.44 1025.77 1364.3 1044.9" fill="#3b4951"/>
          <polygon points="1407.01 1069.56 1373.87 1050.43 1407.01 1031.29 1440.16 1050.43 1407.01 1069.56" fill="#3b4951"/>
          <polygon points="1449.72 1094.22 1416.58 1075.09 1449.72 1055.95 1482.86 1075.09 1449.72 1094.22" fill="#3b4951"/>
          <polygon points="1492.43 1118.88 1459.29 1099.75 1492.43 1080.61 1525.57 1099.75 1492.43 1118.88" fill="#3b4951"/>
          <polygon points="1535.14 1143.55 1502 1124.4 1535.14 1105.27 1568.29 1124.41 1535.14 1143.55" fill="#3b4951"/>
          <polygon points="1577.85 1168.2 1544.71 1149.07 1577.85 1129.93 1610.99 1149.07 1577.85 1168.2" fill="#3b4951"/>
          <polygon points="1620.56 1192.86 1544.71 1149.07 1577.85 1129.93 1653.7 1173.72 1620.56 1192.86" fill="#3b4951"/>
        </g>
        <g>
          <polygon points="937.43 847.5 904.28 828.37 937.43 809.23 970.57 828.37 937.43 847.5" fill="#3b4951"/>
          <polygon points="980.13 872.16 946.99 853.03 980.13 833.89 1013.27 853.03 980.13 872.16" fill="#3b4951"/>
          <polygon points="1022.85 896.81 989.7 877.69 1022.84 858.55 1055.99 877.69 1022.85 896.81" fill="#3b4951"/>
          <polygon points="1065.56 921.48 1032.42 902.34 1065.56 883.21 1098.69 902.35 1065.56 921.48" fill="#3b4951"/>
          <polygon points="1108.26 946.14 1075.12 927 1108.26 907.87 1141.41 927 1108.26 946.14" fill="#3b4951"/>
          <polygon points="1150.97 970.8 1117.83 951.66 1150.97 932.52 1184.12 951.66 1150.97 970.8" fill="#3b4951"/>
          <polygon points="1193.69 995.46 1160.55 976.32 1193.69 957.19 1226.82 976.32 1193.69 995.46" fill="#3b4951"/>
          <polygon points="1236.4 1020.11 1203.25 1000.98 1236.39 981.85 1269.54 1000.98 1236.4 1020.11" fill="#3b4951"/>
          <polygon points="1279.11 1044.77 1245.96 1025.63 1279.11 1006.51 1312.25 1025.63 1279.11 1044.77" fill="#3b4951"/>
          <polygon points="1321.82 1069.43 1288.68 1050.3 1321.82 1031.16 1354.95 1050.3 1321.82 1069.43" fill="#3b4951"/>
          <polygon points="1364.53 1094.09 1331.38 1074.96 1364.52 1055.82 1397.67 1074.96 1364.53 1094.09" fill="#3b4951"/>
          <polygon points="1407.24 1118.74 1374.1 1099.62 1407.24 1080.48 1440.38 1099.62 1407.24 1118.74" fill="#3b4951"/>
          <polygon points="1449.95 1143.41 1416.81 1124.27 1449.95 1105.14 1483.09 1124.28 1449.95 1143.41" fill="#3b4951"/>
          <polygon points="1492.66 1168.07 1459.51 1148.93 1492.66 1129.8 1525.8 1148.93 1492.66 1168.07" fill="#3b4951"/>
          <polygon points="1535.37 1192.73 1502.23 1173.59 1535.37 1154.45 1568.51 1173.59 1535.37 1192.73" fill="#3b4951"/>
          <polygon points="1578.09 1217.39 1544.94 1198.25 1578.07 1179.12 1611.22 1198.25 1578.09 1217.39" fill="#3b4951"/>
        </g>
        <g>
          <polygon points="894.94 872.03 861.8 852.9 894.94 833.76 928.08 852.9 894.94 872.03" fill="#3b4951"/>
          <polygon points="937.66 896.68 904.51 877.55 937.66 858.42 970.8 877.55 937.66 896.68" fill="#3b4951"/>
          <polygon points="980.36 921.35 947.22 902.21 980.36 883.07 1013.5 902.22 980.36 921.35" fill="#3b4951"/>
          <polygon points="1023.07 946.01 989.93 926.87 1023.07 907.73 1056.22 926.87 1023.07 946.01" fill="#3b4951"/>
          <polygon points="1279.34 1093.96 1032.64 951.53 1065.78 932.39 1312.48 1074.83 1279.34 1093.96" fill="#3b4951"/>
          <polygon points="1108.49 995.33 1075.35 976.18 1108.49 957.06 1141.63 976.19 1108.49 995.33" fill="#3b4951"/>
          <polygon points="1151.21 1019.98 1118.06 1000.84 1151.21 981.72 1184.35 1000.84 1151.21 1019.98" fill="#3b4951"/>
          <polygon points="1193.92 1044.64 1160.77 1025.5 1193.92 1006.37 1227.05 1025.5 1193.92 1044.64" fill="#3b4951"/>
          <polygon points="1236.62 1069.3 1203.48 1050.17 1236.62 1031.03 1269.76 1050.17 1236.62 1069.3" fill="#3b4951"/>
          <polygon points="1279.34 1093.96 1246.19 1074.83 1279.34 1055.69 1312.48 1074.83 1279.34 1093.96" fill="#3b4951"/>
          <polygon points="1322.05 1118.61 1288.91 1099.48 1322.05 1080.35 1355.18 1099.48 1322.05 1118.61" fill="#3b4951"/>
          <polygon points="1364.75 1143.28 1331.61 1124.14 1364.75 1105 1397.9 1124.14 1364.75 1143.28" fill="#3b4951"/>
          <polygon points="1407.47 1167.94 1374.32 1148.8 1407.47 1129.66 1440.61 1148.8 1407.47 1167.94" fill="#3b4951"/>
          <polygon points="1450.18 1192.6 1417.04 1173.46 1450.18 1154.32 1483.31 1173.46 1450.18 1192.6" fill="#3b4951"/>
          <polygon points="1492.89 1217.26 1459.74 1198.12 1492.89 1178.99 1526.03 1198.12 1492.89 1217.26" fill="#3b4951"/>
          <polygon points="1535.6 1241.91 1502.45 1222.77 1535.6 1203.65 1568.74 1222.77 1535.6 1241.91" fill="#3b4951"/>
        </g>
      </g>
      <path d="M1102.17,1202.12l-171.44-98.97c-15.82-9.14-13.84-25.09,4.43-35.64l75.63-43.67c18.27-10.55,45.91-11.69,61.73-2.56l171.44,98.97c15.82,9.14,13.84,25.09-4.43,35.64l-75.63,43.67c-18.27,10.55-45.91,11.69-61.73,2.56Z" fill="#3b4951"/>
    </g>
  </g>
  <g>
    <g>
      <g>
        <g>
          <polygon points="675.87 1536.08 675.87 1580.02 537.85 1507.99 537.85 1463.43 675.87 1536.08" fill="#001d88" stroke="#ba17ff" stroke-miterlimit="10"/>
          <path d="M611.89,1521.62c2.45,1.28,4.45,4.42,4.45,6.99v.5c0,2.56-2.01,3.61-4.46,2.34l-10.02-5.18c-2.46-1.27-4.46-4.4-4.46-6.97v-.61c0-2.56,2-3.6,4.45-2.32l10.04,5.25Z" fill="#003f9b" stroke="#ba17ff" stroke-miterlimit="10"/>
        </g>
        <polygon points="537.85 1463.42 547.55 1458.16 669.91 1522.03 669.91 1532.94 537.85 1463.42" fill="#0075bc" stroke="#ba17ff" stroke-miterlimit="10"/>
      </g>
      <g>
        <g>
          <polygon points="675.87 1591.07 675.87 1635.01 537.85 1562.97 537.85 1518.42 675.87 1591.07" fill="#001d88" stroke="#ba17ff" stroke-miterlimit="10"/>
          <path d="M611.89,1576.61c2.45,1.28,4.45,4.42,4.45,6.99v.5c0,2.56-2.01,3.61-4.46,2.34l-10.02-5.18c-2.46-1.27-4.46-4.4-4.46-6.97v-.61c0-2.56,2-3.6,4.45-2.32l10.04,5.25Z" fill="#003f9b" stroke="#ba17ff" stroke-miterlimit="10"/>
        </g>
        <polygon points="537.85 1518.41 547.55 1513.15 669.91 1577.02 669.91 1587.93 537.85 1518.41" fill="#0075bc" stroke="#ba17ff" stroke-miterlimit="10"/>
      </g>
      <g>
        <g>
          <polygon points="675.87 1482 675.87 1525.93 537.85 1453.9 537.85 1409.35 675.87 1482" fill="#001d88" stroke="#ba17ff" stroke-miterlimit="10"/>
          <path d="M611.89,1467.53c2.45,1.28,4.45,4.42,4.45,6.99v.5c0,2.56-2.01,3.61-4.46,2.34l-10.02-5.18c-2.46-1.27-4.46-4.4-4.46-6.97v-.61c0-2.56,2-3.6,4.45-2.32l10.04,5.25Z" fill="#003f9b" stroke="#ba17ff" stroke-miterlimit="10"/>
        </g>
        <polygon points="537.85 1409.34 547.55 1404.09 669.91 1467.94 669.91 1478.85 537.85 1409.34" fill="#0075bc" stroke="#ba17ff" stroke-miterlimit="10"/>
      </g>
      <polygon points="668.39 1631.09 844.21 1538.49 844.21 1386.64 690.85 1467.69 668.39 1631.09" fill="#001d88" stroke="#ba17ff" stroke-miterlimit="10"/>
      <g>
        <polygon points="345.7 1300.57 683.4 1476.2 870 1379.14 531.85 1202.27 345.7 1300.57" fill="#896b29" stroke="#ba17ff" stroke-miterlimit="10"/>
        <g>
          <polygon points="683.4 1456.77 683.4 1652.35 698.42 1644.33 698.42 1449.06 683.4 1456.77" fill="#ddd" stroke="#ba17ff" stroke-miterlimit="10"/>
          <polygon points="683.4 1456.77 683.4 1652.35 668.39 1644.33 668.39 1449.06 683.4 1456.77" fill="#b5b5b5" stroke="#ba17ff" stroke-miterlimit="10"/>
        </g>
        <g>
          <polygon points="360.72 1290.18 360.72 1485.77 375.75 1477.74 375.75 1282.47 360.72 1290.18" fill="#ddd" stroke="#ba17ff" stroke-miterlimit="10"/>
          <polygon points="360.72 1290.18 360.72 1485.77 345.7 1477.74 345.7 1282.47 360.72 1290.18" fill="#b5b5b5" stroke="#ba17ff" stroke-miterlimit="10"/>
        </g>
        <g>
          <polygon points="854.99 1367.36 854.99 1562.94 870 1554.92 870 1359.65 854.99 1367.36" fill="#ddd" stroke="#ba17ff" stroke-miterlimit="10"/>
          <polygon points="854.99 1367.36 854.99 1562.94 839.96 1554.92 839.96 1359.65 854.99 1367.36" fill="#b5b5b5" stroke="#ba17ff" stroke-miterlimit="10"/>
        </g>
        <g>
          <polygon points="345.7 1282.47 683.4 1458.1 870 1361.03 531.85 1184.17 345.7 1282.47" fill="#0075bc" stroke="#ba17ff" stroke-miterlimit="10"/>
          <polygon points="683.4 1476.2 683.4 1458.1 870 1361.03 870 1379.14 683.4 1476.2" fill="#003f9b" stroke="#ba17ff" stroke-miterlimit="10"/>
          <polygon points="345.7 1282.47 345.7 1300.57 683.4 1476.2 683.4 1458.1 345.7 1282.47" fill="#00347a" stroke="#ba17ff" stroke-miterlimit="10"/>
        </g>
      </g>
    </g>
    <polygon points="775.24 1393.93 759.57 1393.93 680.19 1353.44 743.19 1320.43 755.81 1318.88 775.24 1393.93" fill="#003f9b"/>
    <g>
      <polygon points="834.11 1359.83 775.24 1390.4 696.77 1349.4 755.81 1318.88 834.11 1359.83" fill="#3f3c3b"/>
      <polygon points="817.89 1358.61 772.93 1381.96 712.97 1350.64 758.08 1327.31 817.89 1358.61" fill="#e5dedc"/>
      <g>
        <path d="M797.8,1372.28c0,1.05,1.45,1.91,3.23,1.91s3.23-.85,3.23-1.91-1.45-1.91-3.23-1.91-3.23.85-3.23,1.91Z" fill="#d1cac9"/>
        <path d="M799.52,1372.28c0,.49.67.89,1.51.89s1.51-.4,1.51-.89-.67-.89-1.51-.89-1.51.4-1.51.89Z" fill="#2b2928"/>
      </g>
      <polygon points="696.77 1349.4 696.77 1352.84 775.24 1393.93 775.24 1390.4 696.77 1349.4" fill="#232121"/>
      <polygon points="834.11 1359.83 834.11 1363.4 775.24 1393.93 775.24 1390.4 834.11 1359.83" fill="#5b5454"/>
      <polygon points="758.48 1333.75 725.44 1350.84 726.48 1351.38 759.57 1334.32 758.48 1333.75" fill="#c6c1c1"/>
      <polygon points="761.69 1335.57 728.63 1352.66 729.68 1353.2 762.78 1336.14 761.69 1335.57" fill="#c6c1c1"/>
      <polygon points="764.88 1337.58 731.83 1354.68 732.87 1355.22 765.98 1338.15 764.88 1337.58" fill="#c6c1c1"/>
      <polygon points="799.03 1355.54 765.98 1372.63 767.02 1373.17 800.12 1356.11 799.03 1355.54" fill="#c6c1c1"/>
      <polygon points="794.44 1353.44 761.4 1370.53 762.44 1371.07 795.55 1354.01 794.44 1353.44" fill="#c6c1c1"/>
      <polygon points="786.96 1349.4 753.91 1366.5 754.95 1367.05 788.06 1349.98 786.96 1349.4" fill="#c6c1c1"/>
      <polygon points="790.16 1351.41 757.11 1368.51 758.15 1369.06 791.25 1351.99 790.16 1351.41" fill="#c6c1c1"/>
      <polygon points="769.73 1340.54 757.28 1346.96 770.44 1353.77 782.54 1347.58 769.73 1340.54" fill="#b2adad"/>
      <polygon points="749.97 1350.53 737.52 1356.95 750.67 1363.76 762.78 1357.58 749.97 1350.53" fill="#b2adad"/>
    </g>
    <polygon points="692.43 1436.79 676.6 1436.79 608.76 1401.88 632.78 1390.29 692.43 1436.79" fill="#003f9b"/>
    <g>
      <g>
        <polygon points="743.19 1399.58 692.43 1426.2 623.62 1390.66 675.05 1364.02 743.19 1399.58" fill="#efefef"/>
        <polygon points="623.62 1390.66 623.62 1400.89 692.43 1436.79 692.43 1426.2 623.62 1390.66" fill="#c4c4c4"/>
        <polygon points="743.19 1399.58 743.19 1409.72 692.43 1436.79 692.43 1426.2 743.19 1399.58" fill="#dbdbdb"/>
      </g>
      <polygon points="743.39 1396.76 691.86 1424.03 623.42 1388.33 675.15 1361.55 743.39 1396.76" fill="#e0e0e0"/>
      <polygon points="675.97 1367.42 686.4 1372.79 665.49 1383.7 654.96 1378.21 675.97 1367.42" fill="#afafaf"/>
      <polygon points="655.01 1380.36 634.91 1390.85 636.01 1391.49 656.11 1380.86 655.01 1380.36" fill="#afafaf"/>
      <polygon points="657.46 1381.94 637.36 1392.43 638.47 1393.07 658.57 1382.44 657.46 1381.94" fill="#afafaf"/>
      <polygon points="660.09 1383.52 639.99 1394.01 641.09 1394.65 661.19 1384.02 660.09 1383.52" fill="#afafaf"/>
      <polygon points="662.98 1385.25 642.88 1395.74 644 1396.38 664.09 1385.75 662.98 1385.25" fill="#afafaf"/>
      <g>
        <g>
          <polygon points="694.31 1376.07 674.21 1386.56 675.32 1387.2 695.42 1376.58 694.31 1376.07" fill="#afafaf"/>
          <polygon points="697 1377.54 676.9 1388.02 678.01 1388.67 698.11 1378.04 697 1377.54" fill="#afafaf"/>
          <polygon points="699.87 1379.16 679.78 1389.65 680.89 1390.29 700.98 1379.66 699.87 1379.16" fill="#afafaf"/>
          <polygon points="702.79 1380.69 682.68 1391.18 683.79 1391.83 703.89 1381.19 702.79 1380.69" fill="#afafaf"/>
          <polygon points="705.48 1382.15 685.38 1392.64 686.48 1393.28 706.58 1382.65 705.48 1382.15" fill="#afafaf"/>
          <polygon points="708.35 1383.77 688.25 1394.26 689.35 1394.91 709.45 1384.27 708.35 1383.77" fill="#afafaf"/>
        </g>
        <g>
          <polygon points="711.06 1385.38 690.97 1395.87 692.08 1396.51 712.17 1385.88 711.06 1385.38" fill="#afafaf"/>
          <polygon points="713.76 1386.84 693.66 1397.33 694.77 1397.97 714.87 1387.34 713.76 1386.84" fill="#afafaf"/>
          <polygon points="716.63 1388.47 696.53 1398.95 697.64 1399.59 717.74 1388.97 716.63 1388.47" fill="#afafaf"/>
          <polygon points="719.53 1390.01 699.43 1400.5 700.54 1401.14 720.64 1390.51 719.53 1390.01" fill="#afafaf"/>
          <polygon points="722.22 1391.47 702.13 1401.95 703.24 1402.6 723.33 1391.97 722.22 1391.47" fill="#afafaf"/>
          <polygon points="725.1 1393.09 705 1403.58 706.11 1404.22 726.21 1393.59 725.1 1393.09" fill="#afafaf"/>
        </g>
      </g>
      <g>
        <g>
          <polygon points="672.37 1387.65 652.27 1398.14 653.37 1398.79 673.48 1388.15 672.37 1387.65" fill="#afafaf"/>
          <polygon points="675.06 1389.12 654.97 1399.6 656.08 1400.25 676.17 1389.62 675.06 1389.12" fill="#afafaf"/>
          <polygon points="677.93 1390.74 657.84 1401.23 658.95 1401.88 679.05 1391.24 677.93 1390.74" fill="#afafaf"/>
          <polygon points="680.84 1392.28 660.74 1402.77 661.85 1403.41 681.95 1392.78 680.84 1392.28" fill="#afafaf"/>
          <polygon points="683.53 1393.74 663.43 1404.23 664.54 1404.87 684.64 1394.24 683.53 1393.74" fill="#afafaf"/>
          <polygon points="686.4 1395.36 666.3 1405.85 667.42 1406.49 687.51 1395.86 686.4 1395.36" fill="#afafaf"/>
        </g>
        <g>
          <polygon points="689.11 1396.97 669.02 1407.46 670.13 1408.1 690.23 1397.47 689.11 1396.97" fill="#afafaf"/>
          <polygon points="691.82 1398.43 671.72 1408.91 672.82 1409.56 692.92 1398.93 691.82 1398.43" fill="#afafaf"/>
          <polygon points="694.69 1400.06 674.59 1410.54 675.69 1411.18 695.79 1400.56 694.69 1400.06" fill="#afafaf"/>
          <polygon points="697.59 1401.59 677.49 1412.08 678.6 1412.72 698.69 1402.09 697.59 1401.59" fill="#afafaf"/>
          <polygon points="700.28 1403.05 680.19 1413.54 681.29 1414.18 701.38 1403.55 700.28 1403.05" fill="#afafaf"/>
          <polygon points="703.16 1404.67 683.06 1415.16 684.16 1415.8 704.26 1405.17 703.16 1404.67" fill="#afafaf"/>
        </g>
      </g>
    </g>
    <polygon points="602.85 1395.88 591.08 1395.88 565.4 1382.79 579.22 1376.03 602.85 1395.88" fill="#003f9b"/>
    <g>
      <path d="M601,1393.5c1.39.73,3.67.73,5.06,0l41.23-21.49c1.39-.73,1.39-1.91,0-2.63l-24.75-12.85c-1.39-.72-3.67-.72-5.06,0l-41.04,21.48c-1.39.73-1.39,1.92,0,2.64l24.56,12.84h0Z" fill="#cecece"/>
      <path d="M575.4,1375.82v3.55s-.03.72.97,1.24l25,13.04s2.14.94,4.57-.11l41.56-21.67s.85-.43.82-1.32v-3.27l-72.92,8.52v.02Z" fill="#aaa"/>
      <path d="M601,1390.02c1.39.73,3.67.73,5.06,0l41.23-21.49c1.39-.73,1.39-1.91,0-2.63l-24.75-12.85c-1.39-.72-3.67-.72-5.06,0l-41.04,21.48c-1.39.73-1.39,1.92,0,2.64l24.56,12.84h0Z" fill="#eaeaea"/>
      <polygon points="645.16 1368.26 611.37 1385.96 584.12 1371.77 618.12 1353.88 645.16 1368.26" fill="#5a8196"/>
      <path d="M589.61,1380.95h.24c.15-.19.38-.37.68-.53,1.21-.63,3.16-.64,4.33-.02.31.16.53.35.68.55h.19v.59h0c-.01.41-.32.81-.91,1.12-1.2.63-3.14.64-4.33.02-.6-.31-.89-.73-.88-1.15h0v-.59h0Z" fill="#606060"/>
      <path d="M594.85,1379.81c1.18.62,1.16,1.64-.04,2.27-1.2.63-3.14.64-4.33.02s-1.17-1.64.04-2.27c1.21-.63,3.16-.64,4.33-.02Z" fill="#4c4c4c"/>
      <path d="M594.05,1380.23c.74.39.73,1.03-.02,1.43s-1.98.4-2.73.01-.74-1.03.02-1.43,1.99-.4,2.73-.01Z" fill="#6b6b6b"/>
      <polygon points="641.16 1366.14 599.74 1379.91 596.29 1378.12 637.96 1364.42 641.16 1366.14" fill="#6695aa"/>
      <polygon points="635.83 1363.29 594.34 1377.09 590.89 1375.29 632.63 1361.57 635.83 1363.29" fill="#6695aa"/>
      <g>
        <polygon points="645.3 1370.78 645.3 1372.46 641.99 1374.2 641.99 1372.49 645.3 1370.78" fill="#939393"/>
        <polygon points="641.99 1372.49 641.58 1372.26 641.58 1374.01 641.99 1374.2 641.99 1372.49" fill="#7c7c7c"/>
        <polygon points="645.3 1370.78 644.84 1370.53 641.58 1372.26 641.99 1372.49 645.3 1370.78" fill="#686868"/>
      </g>
      <g>
        <polygon points="641.14 1372.95 641.14 1374.63 637.83 1376.37 637.83 1374.66 641.14 1372.95" fill="#939393"/>
        <polygon points="637.83 1374.66 637.42 1374.43 637.42 1376.18 637.83 1376.37 637.83 1374.66" fill="#7c7c7c"/>
        <polygon points="641.14 1372.95 640.67 1372.7 637.42 1374.43 637.83 1374.66 641.14 1372.95" fill="#686868"/>
      </g>
      <g>
        <polygon points="635.24 1375.93 635.24 1377.62 631.93 1379.36 631.93 1377.65 635.24 1375.93" fill="#939393"/>
        <polygon points="631.93 1377.65 631.51 1377.42 631.51 1379.17 631.93 1379.36 631.93 1377.65" fill="#7c7c7c"/>
        <polygon points="635.24 1375.93 634.77 1375.68 631.51 1377.42 631.93 1377.65 635.24 1375.93" fill="#686868"/>
      </g>
      <g>
        <path d="M627.57,1357.1l.74.36c.42.05.94.21,1.42.46l6.05,3.17,3.76,1.83v.67l-.04-.02s-.05.04-.08.06c-.33.18-1.24,0-2.01-.41l-8.93-4.65c-.62-.32-.97-.69-.91-.92v-.56h0Z" fill="#848484"/>
        <path d="M638.62,1362.01c.77.4,1.13.88.8,1.06s-1.24,0-2.01-.41l-8.93-4.65c-.77-.4-1.12-.88-.78-1.06.34-.18,1.26,0,2.03.41l8.89,4.66h0Z" fill="#6b6b6b"/>
      </g>
    </g>
    <polygon points="541.12 1353.2 514.41 1353.2 399.92 1283.98 440.46 1261.01 541.12 1353.2" fill="#003f9b"/>
  </g>
  <path d="M701.2,1345.93v-.02" fill="#1d1d1b" stroke="#fff" stroke-miterlimit="10" stroke-width="15"/>
  <path d="M516.49,1292.55c38.34-20.92,76.69-41.83,115.03-62.74" fill="none" stroke="#5d7280" stroke-miterlimit="10" stroke-width="8"/>
  <g>
    <polygon points="546.39 1355.3 408.59 1275.74 449.42 1252.17 587.21 1331.73 546.39 1355.3" fill="#d7daff"/>
    <polygon points="546.38 1360.04 408.59 1280.48 408.59 1275.72 546.38 1355.27 546.38 1360.04" fill="#aeb2f4"/>
    <polygon points="546.38 1355.27 587.21 1331.7 587.21 1336.47 546.38 1360.04 546.38 1355.27" fill="#888abf"/>
    <g>
      <g>
        <polygon points="449.08 1264.52 442.13 1260.52 449.08 1256.5 456.01 1260.52 449.08 1264.52" fill="#aeb2f4"/>
        <polygon points="457.92 1269.62 450.97 1265.61 457.92 1261.61 464.85 1265.61 457.92 1269.62" fill="#aeb2f4"/>
        <polygon points="466.74 1274.72 459.81 1270.71 466.74 1266.71 473.69 1270.71 466.74 1274.72" fill="#aeb2f4"/>
        <polygon points="475.58 1279.82 468.64 1275.82 475.58 1271.81 482.52 1275.82 475.58 1279.82" fill="#aeb2f4"/>
        <polygon points="484.41 1284.93 477.47 1280.91 484.41 1276.91 491.36 1280.91 484.41 1284.93" fill="#aeb2f4"/>
        <polygon points="493.25 1290.02 486.31 1286.02 493.25 1282 500.19 1286.02 493.25 1290.02" fill="#aeb2f4"/>
        <polygon points="502.08 1295.13 495.14 1291.11 502.08 1287.11 509.02 1291.11 502.08 1295.13" fill="#aeb2f4"/>
        <polygon points="510.91 1300.22 503.98 1296.22 510.91 1292.21 517.86 1296.22 510.91 1300.22" fill="#aeb2f4"/>
        <polygon points="519.75 1305.32 512.81 1301.32 519.75 1297.31 526.7 1301.32 519.75 1305.32" fill="#aeb2f4"/>
        <polygon points="528.59 1310.43 521.64 1306.41 528.59 1302.41 535.52 1306.41 528.59 1310.43" fill="#aeb2f4"/>
        <polygon points="537.41 1315.52 530.48 1311.52 537.41 1307.51 544.36 1311.52 537.41 1315.52" fill="#aeb2f4"/>
        <polygon points="546.25 1320.63 539.31 1316.61 546.25 1312.61 553.19 1316.61 546.25 1320.63" fill="#aeb2f4"/>
        <polygon points="555.09 1325.72 548.14 1321.72 555.09 1317.71 562.03 1321.72 555.09 1325.72" fill="#aeb2f4"/>
        <polygon points="563.92 1330.83 556.98 1326.82 563.92 1322.81 570.86 1326.82 563.92 1330.83" fill="#aeb2f4"/>
        <polygon points="572.75 1335.93 565.81 1331.92 572.75 1327.91 579.69 1331.92 572.75 1335.93" fill="#aeb2f4"/>
      </g>
      <g>
        <polygon points="440.4 1269.53 433.46 1265.52 440.4 1261.52 447.34 1265.52 440.4 1269.53" fill="#aeb2f4"/>
        <polygon points="449.24 1274.63 442.29 1270.62 449.24 1266.62 456.17 1270.62 449.24 1274.63" fill="#aeb2f4"/>
        <polygon points="458.07 1279.73 451.13 1275.73 458.07 1271.72 465.01 1275.73 458.07 1279.73" fill="#aeb2f4"/>
        <polygon points="466.9 1284.83 459.96 1280.82 466.9 1276.82 473.84 1280.82 466.9 1284.83" fill="#aeb2f4"/>
        <polygon points="475.74 1289.93 468.8 1285.93 475.74 1281.91 482.68 1285.93 475.74 1289.93" fill="#aeb2f4"/>
        <polygon points="484.57 1295.04 477.63 1291.02 484.57 1287.02 491.52 1291.02 484.57 1295.04" fill="#aeb2f4"/>
        <polygon points="493.41 1300.13 486.46 1296.13 493.41 1292.12 500.34 1296.13 493.41 1300.13" fill="#aeb2f4"/>
        <polygon points="502.24 1305.23 495.3 1301.23 502.24 1297.22 509.18 1301.23 502.24 1305.23" fill="#aeb2f4"/>
        <polygon points="511.07 1310.33 504.14 1306.32 511.07 1302.32 518.02 1306.32 511.07 1310.33" fill="#aeb2f4"/>
        <polygon points="519.91 1315.43 512.96 1311.43 519.91 1307.42 526.85 1311.43 519.91 1315.43" fill="#aeb2f4"/>
        <polygon points="528.74 1320.54 521.8 1316.52 528.74 1312.52 535.68 1316.52 528.74 1320.54" fill="#aeb2f4"/>
        <polygon points="537.57 1325.63 530.64 1321.63 537.57 1317.61 544.52 1321.63 537.57 1325.63" fill="#aeb2f4"/>
        <polygon points="546.41 1330.74 539.47 1326.72 546.41 1322.72 553.35 1326.73 546.41 1330.74" fill="#aeb2f4"/>
        <polygon points="555.24 1335.83 548.3 1331.83 555.24 1327.82 562.19 1331.83 555.24 1335.83" fill="#aeb2f4"/>
        <polygon points="564.08 1340.93 548.3 1331.83 555.24 1327.82 571.02 1336.93 564.08 1340.93" fill="#aeb2f4"/>
      </g>
      <g>
        <polygon points="431.72 1274.54 424.79 1270.53 431.72 1266.52 438.67 1270.53 431.72 1274.54" fill="#aeb2f4"/>
        <polygon points="440.56 1279.64 433.62 1275.63 440.56 1271.63 447.5 1275.63 440.56 1279.64" fill="#aeb2f4"/>
        <polygon points="449.39 1284.74 442.45 1280.73 449.39 1276.73 456.34 1280.73 449.39 1284.74" fill="#aeb2f4"/>
        <polygon points="458.23 1289.84 451.29 1285.84 458.23 1281.82 465.17 1285.84 458.23 1289.84" fill="#aeb2f4"/>
        <polygon points="467.06 1294.95 460.12 1290.93 467.06 1286.93 474 1290.93 467.06 1294.95" fill="#aeb2f4"/>
        <polygon points="475.89 1300.04 468.96 1296.04 475.89 1292.02 482.84 1296.04 475.89 1300.04" fill="#aeb2f4"/>
        <polygon points="484.73 1305.14 477.79 1301.13 484.73 1297.13 491.68 1301.13 484.73 1305.14" fill="#aeb2f4"/>
        <polygon points="493.57 1310.24 486.62 1306.23 493.57 1302.23 500.5 1306.23 493.57 1310.24" fill="#aeb2f4"/>
        <polygon points="502.39 1315.34 495.46 1311.34 502.39 1307.33 509.34 1311.34 502.39 1315.34" fill="#aeb2f4"/>
        <polygon points="511.23 1320.45 504.3 1316.43 511.23 1312.43 518.17 1316.43 511.23 1320.45" fill="#aeb2f4"/>
        <polygon points="520.07 1325.54 513.12 1321.54 520.07 1317.52 527.01 1321.54 520.07 1325.54" fill="#aeb2f4"/>
        <polygon points="528.9 1330.65 521.96 1326.63 528.9 1322.63 535.84 1326.63 528.9 1330.65" fill="#aeb2f4"/>
        <polygon points="537.73 1335.74 530.79 1331.74 537.73 1327.73 544.67 1331.74 537.73 1335.74" fill="#aeb2f4"/>
        <polygon points="546.57 1340.84 539.63 1336.84 546.57 1332.83 553.51 1336.84 546.57 1340.84" fill="#aeb2f4"/>
        <polygon points="555.4 1345.95 548.46 1341.94 555.4 1337.93 562.35 1341.94 555.4 1345.95" fill="#aeb2f4"/>
      </g>
      <g>
        <polygon points="423.05 1279.55 416.11 1275.54 423.05 1271.54 429.99 1275.54 423.05 1279.55" fill="#aeb2f4"/>
        <polygon points="431.88 1284.65 424.94 1280.64 431.88 1276.64 438.82 1280.64 431.88 1284.65" fill="#aeb2f4"/>
        <polygon points="440.72 1289.75 433.78 1285.74 440.72 1281.73 447.66 1285.74 440.72 1289.75" fill="#aeb2f4"/>
        <polygon points="449.55 1294.85 442.61 1290.84 449.55 1286.84 456.5 1290.84 449.55 1294.85" fill="#aeb2f4"/>
        <polygon points="493.72 1320.35 451.44 1295.95 458.39 1291.93 500.66 1316.34 493.72 1320.35" fill="#aeb2f4"/>
        <polygon points="467.22 1305.05 460.28 1301.04 467.22 1297.04 474.16 1301.04 467.22 1305.05" fill="#aeb2f4"/>
        <polygon points="476.05 1310.15 469.12 1306.14 476.05 1302.14 483 1306.14 476.05 1310.15" fill="#aeb2f4"/>
        <polygon points="484.89 1315.25 477.94 1311.24 484.89 1307.24 491.83 1311.24 484.89 1315.25" fill="#aeb2f4"/>
        <polygon points="493.72 1320.35 486.78 1316.34 493.72 1312.34 500.66 1316.34 493.72 1320.35" fill="#aeb2f4"/>
        <polygon points="502.55 1325.45 495.62 1321.45 502.55 1317.43 509.5 1321.45 502.55 1325.45" fill="#aeb2f4"/>
        <polygon points="511.39 1330.56 504.45 1326.54 511.39 1322.54 518.33 1326.54 511.39 1330.56" fill="#aeb2f4"/>
        <polygon points="520.22 1335.65 513.28 1331.65 520.22 1327.63 527.17 1331.65 520.22 1335.65" fill="#aeb2f4"/>
        <polygon points="529.06 1340.75 522.12 1336.74 529.06 1332.74 536 1336.74 529.06 1340.75" fill="#aeb2f4"/>
        <polygon points="537.89 1345.85 530.95 1341.85 537.89 1337.84 544.83 1341.85 537.89 1345.85" fill="#aeb2f4"/>
        <polygon points="546.72 1350.95 539.79 1346.95 546.72 1342.94 553.67 1346.95 546.72 1350.95" fill="#aeb2f4"/>
      </g>
    </g>
  </g>
  <g>
    <path d="M440.52,1428c11.37,2.66,13.3,11.89,9.08,20.05-.13.26-.29.51-.45.74l-13.07,19.12c-.09.13-.18.28-.26.42-4.8,8.51-11.16,12.7-19.37,11.75-.8-.09-1.57-.32-2.3-.67-6.98-3.41-7.85-8.63-5.74-14.71l.11-11.45c.09-.28,3.22.82,3.28.54l4-22.02c.62-3.4,3.63-5.76,6.98-5.45l16.85,1.55c.3.03.6.07.9.14h-.01Z"/>
    <path d="M367.01,1420.53v-59.94l46.55-11.69c14.41-3.62,28.34,7.82,28,23.14-.57,26.21-4.42,54.4-2.83,77.78,0,14.26-24,18.51-33.28,8.23-3.48-20.94-8.61-32.33-3.56-54.29l-34.88,16.77h0Z" fill="#0b151a"/>
    <path d="M461.13,1479.49c-4.33,8.72-3.13,22.92.09,29.1,8.61,2.74,15.7,2.94,20.4-.83,15.85-1.99,24.88-.35,32.93-3.27,8.56-3.1,14.33-6.19,18.26-15.45,1.48-4.12-1.32-11.5-8.48-12.16-13.25.27-25.19-.1-31.86-3.04l-12.55-20.61-19.52,17.99.72,8.27h0Z"/>
    <g>
      <ellipse cx="462.95" cy="1536.46" rx="5.24" ry="5.41" fill="#333"/>
      <path d="M376.46,1561.23c0,2.99,2.35,5.41,5.24,5.41s5.24-2.42,5.24-5.41-2.35-5.41-5.24-5.41-5.24,2.42-5.24,5.41Z" fill="#333"/>
      <ellipse cx="318.66" cy="1523.18" rx="5.24" ry="5.41" fill="#333"/>
      <path d="M352.61,1473.68c0,2.99,2.35,5.41,5.24,5.41s5.24-2.42,5.24-5.41-2.34-5.41-5.24-5.41-5.24,2.42-5.24,5.41Z" fill="#333"/>
      <path d="M444.76,1483.59c0,2.99,2.35,5.41,5.24,5.41s5.24-2.42,5.24-5.41-2.34-5.41-5.24-5.41-5.24,2.42-5.24,5.41Z" fill="#333"/>
      <g>
        <path d="M378.93,1505.94l-25.57-35.33v-2.34l7.53.05,32.88,33.11c2.24-.03,4.47.19,6.62.63l48.42-25.42,5.97,1.22v2.34l-42.62,28.88c.74,1.27,1.09,2.61,1.05,3.94l55.49,17.27v2.34l-3.83,4.48-59.22-15.25c-1.83.83-3.85,1.44-5.97,1.82l-14.12,37.54-8.34-.79v-2.34l6.02-35.98c-.91-.38-1.78-.8-2.59-1.28s-1.51-1-2.15-1.54l-64.21,3.59-1.32-4.97v-2.33l62.92-6.09c.64-1.26,1.67-2.46,3.06-3.56h0Z" fill="#333"/>
        <path d="M378.93,1496.57l-25.57-28.3,7.53-2.28,32.88,26.08c2.24-.03,4.47.19,6.62.63l48.42-18.4,5.97,3.56-42.62,21.86c.74,1.27,1.09,2.61,1.05,3.94l55.49,26.64-3.83,4.48-59.22-22.28c-1.83.83-3.85,1.44-5.97,1.82l-14.12,44.57-8.34-.79,6.02-45.34c-.91-.38-1.78-.8-2.59-1.28s-1.51-1-2.15-1.54l-64.21,10.62-1.32-4.97,62.92-15.45c.64-1.26,1.67-2.46,3.06-3.56h0Z" fill="#999"/>
      </g>
      <g>
        <path d="M385.78,1451.81c.44-.47,1-.91,1.67-1.31,3.99-2.38,10.46-2.38,14.45,0,.67.4,1.22.84,1.67,1.31h1.32v49.72c0,1.56-1,3.12-2.99,4.31-3.99,2.38-10.46,2.38-14.45,0-1.99-1.19-2.99-2.75-2.99-4.31v-49.72h1.32,0Z" fill="#4d4d4d"/>
        <path d="M387.46,1447.5c-3.99,2.38-3.99,6.25,0,8.63,3.99,2.38,10.46,2.38,14.45,0,3.99-2.38,3.99-6.25,0-8.63-3.99-2.38-10.46-2.38-14.45,0Z" fill="#4d4d4d"/>
        <path d="M381.64,1416.9c1.46-1.54,3.73-2.88,6.91-3.77,4-1.12,8.26-1.12,12.27,0,3.17.89,5.44,2.23,6.91,3.77h1.94v37.8c0,3.17-2.81,6.34-8.43,8.07-4.26,1.31-8.84,1.31-13.1,0-5.61-1.73-8.43-4.89-8.43-8.07v-37.8h1.94,0Z" fill="#999"/>
        <path d="M388.13,1408.84c-11.23,3.45-11.23,12.67,0,16.12,4.26,1.31,8.85,1.31,13.1,0,11.23-3.45,11.23-12.67,0-16.12-4.26-1.31-8.84-1.31-13.1,0Z" fill="#4d4d4d"/>
      </g>
    </g>
    <g>
      <path d="M371.93,1502.09l-70.75-42.47c-1.17-.71-1.9-2.21-1.89-4.36l.03-9.93c.01-4.29,2.94-9.5,6.54-11.63l78.47-46.53c1.8-1.07,3.42-1.16,4.6-.46l70.75,42.47-87.74,72.91h-.01Z"/>
      <path d="M455,1455.1l-78.47,46.53c-3.6,2.13-6.51.39-6.5-3.9l.03-9.93c.01-4.29,2.94-9.5,6.54-11.63l78.47-46.53c3.6-2.13,6.51-.39,6.5,3.9l-.03,9.93c-.01,4.29-2.94,9.5-6.54,11.63h0Z" fill="#333"/>
    </g>
    <path d="M495.17,1474.82c0,14.26-26.99,20.73-36.27,10.45-3.48-20.94-5.61-34.55-.57-56.51l-58.5,28.13-53.03-52.05,123.2-30.94c14.41-3.62,28.34,7.82,28,23.14-.57,26.21-4.42,54.4-2.83,77.78h0Z" fill="#1e3a47"/>
    <path id="right-hand" d="M473.06,1358.69l8.62-9.76,5.3-1.45,12.34-10.45,5.89-3.34,2.32.09h3.23c3.06.26,3.56-3.17.58-3.87l-5.8-.79-6.38,1.58-.33-1.58,7.08-4.8,4.25-1.08c1.93.01,3-3.07.21-4.1l-4.16-.5-2.65-1.6c-1.34-.81-2.9-1.12-4.43-.89l-2.85.44-3.74-2.43c-1.25-.81-2.85-.79-4.08.06l-5.94,4.08-6.74,6.14s-4.86-.14-7.77,3.28c-1.84,2.18-1.32,9.01-1.32,9.01l-9.12,9.92,15.49,12.07h0Z" fill="#ffb294"/>
    <path id="left-hand" d="M402.56,1288.95l13.24-2.53,15.96-13.39,12.55-4.99,8.12-1.01c.6-.07,1.21.02,1.76.26l1.68.75h2.08c1.37,0,2.61.85,3.14,2.16l2.28,1.16c1.07.87.62,2.92-.72,3.15h-2.84l-4.93,1.53-7.83,4.43-4.22,8.48s.96,1.83,1.32,1.93c3.15.86,8.62.43,8.62.43l2.81-.51c2.57.68,3.97,2.74,1.57,3.94l-3.77,1.67-14.91,4.23h-15.41l-15.66,4.36-4.84-16.05h0Z" fill="#ffb294"/>
    <path id="left-arm" d="M407.4,1284.06c8.99,2.35,13.63,23.51,2.03,29.34l-71.92,7.54v-39.04l69.89,2.17h0Z" fill="#33485b"/>
    <path d="M414.44,1329.66c-8.98,19.87-17.35,51.62-13.12,68.32,4.01,15.87,14.48,41.62,2.58,57.02-17.75,15.66-82.86-8.22-87.93-41.63-2.21-28.75-.66-60.61-2.15-97.59,0,0-2.23-31.74,20.38-40.44,6.52-2.51,19.93,1.43,19.93,1.43l36.68,30.8,13.08,4.48,10.55,17.61h0Z" fill="#33485b"/>
    <path id="head" d="M396.59,1286.42l11.09-8.22c5.09-3.42,6.26-14.08,6.42-21.85l.34-16.29-3.54-10.01-36.6,1.37-7.11,26,6.53,24.61,22.88,4.38h0Z" fill="#ffb294"/>
    <path id="neck" d="M395.19,1297.92l4.35-19.85-28.96-7.88-8.18,12.15c7.4,10.33,17.65,15.04,32.79,15.57h0Z" fill="#ffb294"/>
    <path d="M401.31,1307.58l-5.6-12.26c-14.9-3.54-26.94-11.92-29.03-18.54l-10.4,1.28,2.04,8.17,43,21.35h0Z" fill="#fff"/>
    <path d="M407.4,1319.27s-27.95-8.86-46.89-24.62c-9.6-7.99-8.75-16.21-8.75-16.21,1.31-1.97,6.32-3.28,11.02-1.65,1.33,12.52,25.13,21.54,36.08,24.97l8.54,17.5h0Z" fill="#1e3a47"/>
    <path id="hair" d="M414.38,1242.72l-8.7,8.61c-1.41,1.4-2.28,3.29-2.42,5.3l-.59,8.12-4.78,4.49.46,8.15s-7.95,11-22.74,5.5c-10.3-3.82-8.71-5.75-12.06-24.28-2.11-11.66-2.34-23.14,8.27-32.34,9.66-8.37,30.5-8.11,38.6-.38,4.22,4.03,7.3,11.54,3.95,16.83h0Z"/>
    <path id="right-arm" d="M482.84,1356.64c3.23-9.25-8.45-23.63-18.4-19.27l-22.87,19.27-27.14-26.97s-9.15-3.34-17.85,6.43c-17.1,19.19-4.72,36.99-4.72,36.99,15.08,10.45,30.03,19.49,44.64,25.47,5.85,2.39,12.53.89,16.92-3.76,11.65-12.38,21.56-25.07,29.42-38.14h0Z" fill="#33485b"/>
    <g>
      <path d="M350.21,1331.04l1.43,64.47,16.07,85.5-70.86-42.28c-.38-.23-.71-.52-1-.9-16.58-21.34-33.79-59.29-28.14-137.13.32-4.37,3.28-9.34,6.81-11.44,1.88-1.12,3.59-1.22,4.83-.48,0-.01,70.86,42.27,70.86,42.27h0Z"/>
      <path d="M382.77,1474.61l-9.8,5.84c-2.53,1.51-4.89,1.39-6.25-.35-16.58-21.34-33.79-59.29-28.14-137.13.32-4.37,3.28-9.34,6.81-11.44,3.58-2.13,6.56-.61,6.81,3.5,3.12,49.9,11.62,94.02,35.21,126.98,2.17,3.03-.4,10.07-4.63,12.59h0Z" fill="#333"/>
    </g>
  </g>
  <g id="unsent-message">
    <polygon points="1693.79 1006.47 1309.52 784.6 1304.4 761.23 1688.68 983.09 1693.79 1006.47" fill="#fff"/>
  </g>
</svg>