<?xml version="1.0" encoding="UTF-8"?>
<svg id="Livello_1" data-name="Livello 1" xmlns="http://www.w3.org/2000/svg" viewBox="0 0 2000 2000">
  <path d="M977.59,1010.2c3.03-5.04,4.84-8.36,5.34-9.76.61-1.7-.7-.57-3.96,3.52" fill="#1d1d1b" stroke="#fff" stroke-miterlimit="10" stroke-width="15"/>
  <path d="M855.75,1317.94c76.15-44.34,152.3-88.68,228.45-133.03" fill="none" stroke="#5d7280" stroke-miterlimit="10" stroke-width="15"/>
  <g>
    <polygon points="1907.65 557.13 1180.17 137.12 1159.35 149.14 1886.83 569.15 1907.65 557.13" fill="#5d7280"/>
    <polygon points="1907.65 1089.17 1907.65 557.13 1886.83 569.15 1886.83 1101.19 1907.65 1089.17" fill="#2c353b"/>
    <g>
      <polygon points="1886.83 1101.19 1159.35 681.18 1159.35 149.14 1886.83 569.15 1886.83 1101.19" fill="#3b4951"/>
      <polygon points="1866.47 581.62 1866.47 1065.24 1179.69 668.73 1179.69 185.1 1866.47 581.62" fill="#fff"/>
      <g id="message3">
        <g>
          <polygon points="1654.76 1202.44 1379.29 1043.39 1379.29 987.76 1654.76 1146.8 1654.76 1202.44" fill="#ce68ff"/>
          <polygon points="1379.29 1043.39 1379.29 1068.53 1413.9 1063.38 1379.29 1043.39" fill="#ce68ff"/>
        </g>
        <polygon points="1590.02 1146.16 1396.59 1034.49 1396.59 1018.26 1590.02 1129.94 1590.02 1146.16" fill="#fff"/>
      </g>
      <polygon points="1356.2 770.61 1179.72 668.71 1179.72 185.13 1356.2 287.02 1356.2 770.61" fill="#d7daff"/>
      <path d="M1237.55,259.92c0,14.66-10.29,20.59-22.98,13.27-12.69-7.33-22.98-25.15-22.98-39.8s10.29-20.59,22.98-13.27c12.69,7.33,22.98,25.15,22.98,39.8Z" fill="#888abf"/>
      <polygon points="1251.79 278.26 1326.24 321.24 1326.24 301 1251.79 258.02 1251.79 278.26" fill="#3b4951"/>
      <g>
        <g>
          <path d="M1225.6,322.33c0,10.84-7.61,15.24-17,9.82-9.39-5.42-17-18.6-17-29.45s7.61-15.24,17-9.82c9.39,5.42,17,18.61,17,29.45Z" fill="#6fd450"/>
          <polygon points="1236.14 335.91 1313.82 380.76 1313.82 365.78 1236.14 320.93 1236.14 335.91" fill="#3b4951"/>
        </g>
        <g>
          <path d="M1225.6,378.26c0,10.84-7.61,15.24-17,9.82-9.39-5.42-17-18.6-17-29.45s7.61-15.24,17-9.82c9.39,5.42,17,18.61,17,29.45Z" fill="#69c3fa"/>
          <polygon points="1236.14 391.84 1294.75 425.68 1294.75 410.7 1236.14 376.86 1236.14 391.84" fill="#3b4951"/>
        </g>
        <g>
          <path d="M1225.6,434.19c0,10.84-7.61,15.24-17,9.82-9.39-5.42-17-18.6-17-29.45s7.61-15.24,17-9.82c9.39,5.42,17,18.6,17,29.45Z" fill="#6159ff"/>
          <polygon points="1236.14 447.77 1331.59 502.88 1331.59 487.9 1236.14 432.79 1236.14 447.77" fill="#3b4951"/>
        </g>
        <g>
          <path d="M1225.6,490.12c0,10.84-7.61,15.24-17,9.82-9.39-5.42-17-18.61-17-29.45s7.61-15.24,17-9.82c9.39,5.42,17,18.6,17,29.45Z" fill="#ed484f"/>
          <polygon points="1236.14 503.7 1298 539.41 1298 524.43 1236.14 488.72 1236.14 503.7" fill="#3b4951"/>
        </g>
        <g>
          <path d="M1225.6,546.05c0,10.84-7.61,15.24-17,9.82-9.39-5.42-17-18.61-17-29.45s7.61-15.24,17-9.82c9.39,5.42,17,18.6,17,29.45Z" fill="#eaa73a"/>
          <polygon points="1236.14 559.63 1325.25 611.07 1325.25 596.1 1236.14 544.65 1236.14 559.63" fill="#3b4951"/>
        </g>
        <g>
          <path d="M1225.6,601.99c0,10.84-7.61,15.24-17,9.82-9.39-5.42-17-18.61-17-29.45s7.61-15.24,17-9.82c9.39,5.42,17,18.6,17,29.45Z" fill="#de3078"/>
          <polygon points="1236.14 615.56 1313.82 660.41 1313.82 645.43 1236.14 600.58 1236.14 615.56" fill="#3b4951"/>
        </g>
      </g>
      <path d="M1324.89,734.66l-122.09-70.49c-6.19-3.58-11.2-13.16-11.2-21.41h0c0-8.25,5.02-12.05,11.2-8.47l122.09,70.49c6.19,3.57,11.21,13.16,11.21,21.41h0c0,8.25-5.02,12.04-11.21,8.47Z" fill="#aeb2f4"/>
      <path id="send-message-box" d="M1833.89,1021.76l-444.16-256.44c-9.57-5.53-17.34-20.36-17.34-33.12h0c0-12.77,7.76-18.63,17.34-13.11l444.16,256.44c9.57,5.53,17.33,20.36,17.33,33.12h0c0,12.77-7.76,18.63-17.33,13.11Z" fill="#d7daff"/>
      <polygon id="send-button" points="1841.9 1003.27 1819.56 1001.32 1819.56 979.44 1841.9 1003.27" fill="#3b4951"/>
      <g id="message2">
        <g>
          <polygon points="1653.79 1108.83 1378.32 949.79 1378.32 838.17 1653.79 997.22 1653.79 1108.83" fill="#ce68ff"/>
          <polygon points="1378.32 949.79 1378.32 974.92 1412.93 969.77 1378.32 949.79" fill="#ce68ff"/>
        </g>
        <g>
          <polygon points="1639.5 1024.09 1395.63 883.29 1395.63 867.06 1639.5 1007.87 1639.5 1024.09" fill="#fff"/>
          <polygon points="1639.5 1052.89 1395.63 912.09 1395.63 895.86 1639.5 1036.66 1639.5 1052.89" fill="#fff"/>
          <polygon points="1589.05 1052.55 1395.63 940.88 1395.63 924.65 1589.05 1036.32 1589.05 1052.55" fill="#fff"/>
        </g>
      </g>
      <g id="message1">
        <g>
          <polygon points="1654.76 957.56 1379.29 798.52 1379.29 742.88 1654.76 901.93 1654.76 957.56" fill="#ce68ff"/>
          <polygon points="1379.29 798.52 1379.29 823.65 1413.9 818.5 1379.29 798.52" fill="#ce68ff"/>
        </g>
        <polygon points="1590.02 901.29 1396.59 789.61 1396.59 773.39 1590.02 885.06 1590.02 901.29" fill="#fff"/>
      </g>
    </g>
  </g>
  <g>
    <polygon points="1426.14 1367.22 698.66 947.21 698.66 971.25 1426.14 1391.26 1426.14 1367.22" fill="#3b4951"/>
    <polygon points="1886.92 1101.19 1426.14 1367.22 1426.14 1391.26 1886.92 1125.23 1886.92 1101.19" fill="#2c353b"/>
    <g>
      <polygon points="1426.15 1367.19 698.67 947.18 1159.43 681.15 1886.91 1101.17 1426.15 1367.19" fill="#5d7280"/>
      <g>
        <g>
          <polygon points="1159.08 750.92 1125.96 731.8 1142.52 722.24 1175.63 741.36 1159.08 750.92" fill="#3b4951"/>
          <polygon points="1201.75 775.56 1168.63 756.44 1185.19 746.88 1218.3 766 1201.75 775.56" fill="#3b4951"/>
          <polygon points="1244.42 800.2 1211.31 781.08 1227.87 771.52 1260.98 790.64 1244.42 800.2" fill="#3b4951"/>
          <polygon points="1287.1 824.83 1253.98 805.72 1270.54 796.16 1303.65 815.28 1287.1 824.83" fill="#3b4951"/>
          <polygon points="1329.77 849.47 1296.66 830.35 1313.21 820.79 1346.33 839.92 1329.77 849.47" fill="#3b4951"/>
          <polygon points="1372.44 874.11 1339.33 854.99 1355.89 845.43 1389 864.55 1372.44 874.11" fill="#3b4951"/>
          <polygon points="1415.12 898.75 1382 879.63 1398.56 870.07 1431.68 889.19 1415.12 898.75" fill="#3b4951"/>
          <polygon points="1457.79 923.39 1424.68 904.27 1441.23 894.71 1474.35 913.83 1457.79 923.39" fill="#3b4951"/>
          <polygon points="1500.47 948.02 1467.35 928.91 1483.91 919.35 1517.02 938.47 1500.47 948.02" fill="#3b4951"/>
          <polygon points="1543.14 972.66 1510.02 953.54 1526.58 943.98 1559.69 963.1 1543.14 972.66" fill="#3b4951"/>
          <polygon points="1585.81 997.3 1552.7 978.18 1569.26 968.62 1602.37 987.74 1585.81 997.3" fill="#3b4951"/>
          <polygon points="1628.49 1021.94 1595.37 1002.82 1611.93 993.26 1645.04 1012.38 1628.49 1021.94" fill="#3b4951"/>
          <polygon points="1671.16 1046.57 1638.05 1027.46 1654.6 1017.9 1687.72 1037.01 1671.16 1046.57" fill="#3b4951"/>
          <polygon points="1713.83 1071.21 1680.72 1052.1 1697.27 1042.54 1730.39 1061.65 1713.83 1071.21" fill="#3b4951"/>
          <polygon points="1756.51 1095.85 1723.39 1076.73 1739.95 1067.17 1773.06 1086.29 1756.51 1095.85" fill="#3b4951"/>
          <polygon points="1799.18 1120.49 1766.07 1101.37 1782.63 1091.81 1815.74 1110.93 1799.18 1120.49" fill="#3b4951"/>
        </g>
        <g>
          <polygon points="1116.63 775.43 1083.51 756.31 1116.63 737.19 1149.74 756.31 1116.63 775.43" fill="#3b4951"/>
          <polygon points="1159.3 800.07 1126.19 780.95 1159.3 761.83 1192.41 780.95 1159.3 800.07" fill="#3b4951"/>
          <polygon points="1201.98 824.7 1168.86 805.58 1201.98 786.47 1235.09 805.58 1201.98 824.7" fill="#3b4951"/>
          <polygon points="1244.65 849.34 1211.54 830.22 1244.65 811.11 1277.76 830.22 1244.65 849.34" fill="#3b4951"/>
          <polygon points="1287.32 873.98 1254.21 854.86 1287.32 835.74 1320.44 854.86 1287.32 873.98" fill="#3b4951"/>
          <polygon points="1330 898.62 1296.88 879.5 1330 860.38 1363.11 879.5 1330 898.62" fill="#3b4951"/>
          <polygon points="1372.67 923.26 1339.56 904.14 1372.67 885.02 1405.78 904.14 1372.67 923.26" fill="#3b4951"/>
          <polygon points="1415.35 947.89 1382.23 928.77 1415.35 909.66 1448.46 928.77 1415.35 947.89" fill="#3b4951"/>
          <polygon points="1458.02 972.53 1424.9 953.41 1458.02 934.29 1491.13 953.41 1458.02 972.53" fill="#3b4951"/>
          <polygon points="1500.69 997.17 1467.58 978.05 1500.69 958.93 1533.81 978.05 1500.69 997.17" fill="#3b4951"/>
          <polygon points="1543.37 1021.81 1510.25 1002.69 1543.37 983.57 1576.48 1002.69 1543.37 1021.81" fill="#3b4951"/>
          <polygon points="1586.04 1046.44 1552.93 1027.32 1586.04 1008.21 1619.15 1027.32 1586.04 1046.44" fill="#3b4951"/>
          <polygon points="1628.71 1071.08 1595.6 1051.96 1628.71 1032.85 1661.83 1051.96 1628.71 1071.08" fill="#3b4951"/>
          <polygon points="1671.39 1095.72 1638.27 1076.6 1671.39 1057.48 1704.5 1076.6 1671.39 1095.72" fill="#3b4951"/>
          <polygon points="1714.06 1120.35 1680.95 1101.24 1714.06 1082.12 1747.17 1101.24 1714.06 1120.35" fill="#3b4951"/>
          <polygon points="1756.74 1144.99 1723.62 1125.88 1756.74 1106.76 1789.85 1125.88 1756.74 1144.99" fill="#3b4951"/>
        </g>
        <g>
          <polygon points="1074.18 799.93 1041.07 780.82 1074.18 761.7 1107.3 780.82 1074.18 799.93" fill="#3b4951"/>
          <polygon points="1116.86 824.57 1083.74 805.45 1116.86 786.33 1149.97 805.45 1116.86 824.57" fill="#3b4951"/>
          <polygon points="1159.53 849.21 1126.42 830.09 1159.53 810.97 1192.64 830.09 1159.53 849.21" fill="#3b4951"/>
          <polygon points="1202.2 873.85 1169.09 854.73 1202.2 835.61 1235.32 854.73 1202.2 873.85" fill="#3b4951"/>
          <polygon points="1244.88 898.48 1211.77 879.37 1244.88 860.25 1277.99 879.37 1244.88 898.48" fill="#3b4951"/>
          <polygon points="1287.55 923.12 1254.44 904.01 1287.55 884.89 1320.67 904.01 1287.55 923.12" fill="#3b4951"/>
          <polygon points="1330.23 947.76 1297.11 928.64 1330.23 909.52 1363.34 928.64 1330.23 947.76" fill="#3b4951"/>
          <polygon points="1372.9 972.4 1339.79 953.28 1372.9 934.16 1406.01 953.28 1372.9 972.4" fill="#3b4951"/>
          <polygon points="1415.57 997.04 1382.46 977.92 1415.57 958.8 1448.69 977.92 1415.57 997.04" fill="#3b4951"/>
          <polygon points="1458.25 1021.67 1425.13 1002.56 1458.25 983.44 1491.36 1002.56 1458.25 1021.67" fill="#3b4951"/>
          <polygon points="1500.92 1046.31 1467.81 1027.19 1500.92 1008.07 1534.04 1027.19 1500.92 1046.31" fill="#3b4951"/>
          <polygon points="1543.59 1070.95 1510.48 1051.83 1543.59 1032.71 1576.71 1051.83 1543.59 1070.95" fill="#3b4951"/>
          <polygon points="1586.27 1095.59 1553.16 1076.47 1586.27 1057.35 1619.38 1076.47 1586.27 1095.59" fill="#3b4951"/>
          <polygon points="1628.94 1120.23 1595.83 1101.1 1628.94 1081.99 1662.06 1101.11 1628.94 1120.23" fill="#3b4951"/>
          <polygon points="1671.62 1144.86 1638.5 1125.75 1671.62 1106.63 1704.73 1125.75 1671.62 1144.86" fill="#3b4951"/>
          <polygon points="1714.29 1169.5 1638.5 1125.75 1671.62 1106.63 1747.4 1150.38 1714.29 1169.5" fill="#3b4951"/>
        </g>
        <g>
          <polygon points="1031.74 824.44 998.62 805.32 1031.74 786.2 1064.85 805.32 1031.74 824.44" fill="#3b4951"/>
          <polygon points="1074.41 849.08 1041.3 829.96 1074.41 810.84 1107.52 829.96 1074.41 849.08" fill="#3b4951"/>
          <polygon points="1117.09 873.71 1083.97 854.6 1117.08 835.48 1150.2 854.6 1117.09 873.71" fill="#3b4951"/>
          <polygon points="1159.76 898.35 1126.65 879.23 1159.76 860.12 1192.87 879.24 1159.76 898.35" fill="#3b4951"/>
          <polygon points="1202.43 922.99 1169.32 903.87 1202.43 884.76 1235.55 903.87 1202.43 922.99" fill="#3b4951"/>
          <polygon points="1245.1 947.63 1211.99 928.51 1245.1 909.39 1278.22 928.51 1245.1 947.63" fill="#3b4951"/>
          <polygon points="1287.78 972.27 1254.67 953.15 1287.78 934.03 1320.89 953.15 1287.78 972.27" fill="#3b4951"/>
          <polygon points="1330.46 996.9 1297.34 977.79 1330.45 958.67 1363.57 977.79 1330.46 996.9" fill="#3b4951"/>
          <polygon points="1373.13 1021.54 1340.01 1002.42 1373.13 983.31 1406.24 1002.42 1373.13 1021.54" fill="#3b4951"/>
          <polygon points="1415.8 1046.18 1382.69 1027.06 1415.8 1007.94 1448.91 1027.06 1415.8 1046.18" fill="#3b4951"/>
          <polygon points="1458.48 1070.82 1425.36 1051.7 1458.47 1032.58 1491.59 1051.7 1458.48 1070.82" fill="#3b4951"/>
          <polygon points="1501.15 1095.45 1468.04 1076.34 1501.15 1057.22 1534.26 1076.34 1501.15 1095.45" fill="#3b4951"/>
          <polygon points="1543.82 1120.09 1510.71 1100.97 1543.82 1081.86 1576.94 1100.98 1543.82 1120.09" fill="#3b4951"/>
          <polygon points="1586.5 1144.73 1553.38 1125.61 1586.5 1106.5 1619.61 1125.61 1586.5 1144.73" fill="#3b4951"/>
          <polygon points="1629.17 1169.37 1596.06 1150.25 1629.17 1131.13 1662.28 1150.25 1629.17 1169.37" fill="#3b4951"/>
          <polygon points="1671.85 1194.01 1638.73 1174.89 1671.84 1155.77 1704.96 1174.89 1671.85 1194.01" fill="#3b4951"/>
        </g>
        <g>
          <polygon points="989.29 848.95 956.18 829.83 989.29 810.71 1022.4 829.83 989.29 848.95" fill="#3b4951"/>
          <polygon points="1031.97 873.58 998.85 854.46 1031.97 835.35 1065.08 854.46 1031.97 873.58" fill="#3b4951"/>
          <polygon points="1074.64 898.22 1041.52 879.1 1074.64 859.98 1107.75 879.11 1074.64 898.22" fill="#3b4951"/>
          <polygon points="1117.31 922.86 1084.2 903.74 1117.31 884.62 1150.43 903.74 1117.31 922.86" fill="#3b4951"/>
          <polygon points="1373.36 1070.69 1126.87 928.38 1159.98 909.26 1406.47 1051.57 1373.36 1070.69" fill="#3b4951"/>
          <polygon points="1202.66 972.14 1169.55 953.01 1202.66 933.9 1235.77 953.02 1202.66 972.14" fill="#3b4951"/>
          <polygon points="1245.34 996.77 1212.22 977.65 1245.34 958.54 1278.45 977.65 1245.34 996.77" fill="#3b4951"/>
          <polygon points="1288.01 1021.41 1254.89 1002.29 1288.01 983.17 1321.12 1002.29 1288.01 1021.41" fill="#3b4951"/>
          <polygon points="1330.68 1046.05 1297.57 1026.93 1330.68 1007.81 1363.79 1026.93 1330.68 1046.05" fill="#3b4951"/>
          <polygon points="1373.36 1070.69 1340.24 1051.57 1373.36 1032.45 1406.47 1051.57 1373.36 1070.69" fill="#3b4951"/>
          <polygon points="1416.03 1095.32 1382.92 1076.2 1416.03 1057.09 1449.14 1076.2 1416.03 1095.32" fill="#3b4951"/>
          <polygon points="1458.7 1119.96 1425.59 1100.84 1458.7 1081.72 1491.82 1100.84 1458.7 1119.96" fill="#3b4951"/>
          <polygon points="1501.38 1144.6 1468.26 1125.48 1501.38 1106.36 1534.49 1125.48 1501.38 1144.6" fill="#3b4951"/>
          <polygon points="1544.05 1169.24 1510.94 1150.12 1544.05 1131 1577.16 1150.12 1544.05 1169.24" fill="#3b4951"/>
          <polygon points="1586.73 1193.88 1553.61 1174.76 1586.73 1155.64 1619.84 1174.76 1586.73 1193.88" fill="#3b4951"/>
          <polygon points="1629.4 1218.51 1596.28 1199.39 1629.4 1180.28 1662.51 1199.39 1629.4 1218.51" fill="#3b4951"/>
        </g>
      </g>
      <path d="M1196.34,1178.75l-171.29-98.89c-15.81-9.13-13.83-25.07,4.43-35.61l75.57-43.63c18.25-10.54,45.87-11.68,61.68-2.56l171.29,98.89c15.81,9.13,13.83,25.07-4.43,35.61l-75.57,43.63c-18.25,10.54-45.87,11.68-61.68,2.56Z" fill="#3b4951"/>
    </g>
  </g>
  <g>
    <g>
      <g>
        <g>
          <polygon points="770.41 1512.43 770.41 1556.33 632.51 1484.36 632.51 1439.84 770.41 1512.43" fill="#001d88" stroke="#ba17ff" stroke-miterlimit="10"/>
          <path d="M706.48,1497.98c2.45,1.28,4.45,4.42,4.45,6.98v.5c0,2.56-2.01,3.61-4.46,2.34l-10.01-5.18c-2.46-1.27-4.46-4.4-4.46-6.96v-.61c0-2.56,2-3.6,4.45-2.32l10.03,5.25Z" fill="#003f9b" stroke="#ba17ff" stroke-miterlimit="10"/>
        </g>
        <polygon points="632.51 1439.83 642.2 1434.58 764.45 1498.39 764.45 1509.29 632.51 1439.83" fill="#0075bc" stroke="#ba17ff" stroke-miterlimit="10"/>
      </g>
      <g>
        <g>
          <polygon points="770.41 1567.37 770.41 1611.27 632.51 1539.3 632.51 1494.78 770.41 1567.37" fill="#001d88" stroke="#ba17ff" stroke-miterlimit="10"/>
          <path d="M706.48,1552.92c2.45,1.28,4.45,4.42,4.45,6.98v.5c0,2.56-2.01,3.61-4.46,2.34l-10.01-5.18c-2.46-1.27-4.46-4.4-4.46-6.96v-.61c0-2.56,2-3.6,4.45-2.32l10.03,5.25Z" fill="#003f9b" stroke="#ba17ff" stroke-miterlimit="10"/>
        </g>
        <polygon points="632.51 1494.77 642.2 1489.52 764.45 1553.33 764.45 1564.23 632.51 1494.77" fill="#0075bc" stroke="#ba17ff" stroke-miterlimit="10"/>
      </g>
      <g>
        <g>
          <polygon points="770.41 1458.39 770.41 1502.29 632.51 1430.32 632.51 1385.81 770.41 1458.39" fill="#001d88" stroke="#ba17ff" stroke-miterlimit="10"/>
          <path d="M706.48,1443.94c2.45,1.28,4.45,4.42,4.45,6.98v.5c0,2.56-2.01,3.61-4.46,2.34l-10.01-5.18c-2.46-1.27-4.46-4.4-4.46-6.96v-.61c0-2.56,2-3.6,4.45-2.32l10.03,5.25Z" fill="#003f9b" stroke="#ba17ff" stroke-miterlimit="10"/>
        </g>
        <polygon points="632.51 1385.8 642.2 1380.55 764.45 1444.35 764.45 1455.25 632.51 1385.8" fill="#0075bc" stroke="#ba17ff" stroke-miterlimit="10"/>
      </g>
      <polygon points="762.93 1607.36 938.6 1514.84 938.6 1363.12 785.37 1444.1 762.93 1607.36" fill="#001d88" stroke="#ba17ff" stroke-miterlimit="10"/>
      <g>
        <polygon points="440.52 1277.12 777.93 1452.6 964.37 1355.62 626.51 1178.9 440.52 1277.12" fill="#896b29" stroke="#ba17ff" stroke-miterlimit="10"/>
        <g>
          <polygon points="777.93 1433.19 777.93 1628.6 792.94 1620.59 792.94 1425.48 777.93 1433.19" fill="#ddd" stroke="#ba17ff" stroke-miterlimit="10"/>
          <polygon points="777.93 1433.19 777.93 1628.6 762.93 1620.59 762.93 1425.48 777.93 1433.19" fill="#b5b5b5" stroke="#ba17ff" stroke-miterlimit="10"/>
        </g>
        <g>
          <polygon points="455.53 1266.74 455.53 1462.16 470.54 1454.14 470.54 1259.04 455.53 1266.74" fill="#ddd" stroke="#ba17ff" stroke-miterlimit="10"/>
          <polygon points="455.53 1266.74 455.53 1462.16 440.52 1454.14 440.52 1259.04 455.53 1266.74" fill="#b5b5b5" stroke="#ba17ff" stroke-miterlimit="10"/>
        </g>
        <g>
          <polygon points="949.37 1343.85 949.37 1539.27 964.37 1531.25 964.37 1336.15 949.37 1343.85" fill="#ddd" stroke="#ba17ff" stroke-miterlimit="10"/>
          <polygon points="949.37 1343.85 949.37 1539.27 934.36 1531.25 934.36 1336.15 949.37 1343.85" fill="#b5b5b5" stroke="#ba17ff" stroke-miterlimit="10"/>
        </g>
        <g>
          <polygon points="440.52 1259.04 777.93 1434.52 964.37 1337.53 626.51 1160.82 440.52 1259.04" fill="#0075bc" stroke="#ba17ff" stroke-miterlimit="10"/>
          <polygon points="777.93 1452.6 777.93 1434.52 964.37 1337.53 964.37 1355.62 777.93 1452.6" fill="#003f9b" stroke="#ba17ff" stroke-miterlimit="10"/>
          <polygon points="440.52 1259.04 440.52 1277.12 777.93 1452.6 777.93 1434.52 440.52 1259.04" fill="#00347a" stroke="#ba17ff" stroke-miterlimit="10"/>
        </g>
      </g>
    </g>
    <polygon points="869.69 1370.4 854.04 1370.4 774.72 1329.94 837.67 1296.96 850.28 1295.41 869.69 1370.4" fill="#003f9b"/>
    <g>
      <polygon points="928.51 1336.33 869.69 1366.87 791.29 1325.91 850.28 1295.41 928.51 1336.33" fill="#3f3c3b"/>
      <polygon points="912.31 1335.11 867.38 1358.44 807.48 1327.15 852.55 1303.84 912.31 1335.11" fill="#e5dedc"/>
      <g>
        <path d="M892.23,1348.77c0,1.05,1.45,1.91,3.23,1.91s3.23-.85,3.23-1.91-1.45-1.91-3.23-1.91-3.23.85-3.23,1.91Z" fill="#d1cac9"/>
        <path d="M893.95,1348.77c0,.49.67.89,1.51.89s1.51-.4,1.51-.89-.67-.89-1.51-.89-1.51.4-1.51.89Z" fill="#2b2928"/>
      </g>
      <polygon points="791.29 1325.91 791.29 1329.35 869.69 1370.4 869.69 1366.87 791.29 1325.91" fill="#232121"/>
      <polygon points="928.51 1336.33 928.51 1339.9 869.69 1370.4 869.69 1366.87 928.51 1336.33" fill="#5b5454"/>
      <polygon points="852.95 1310.27 819.93 1327.35 820.97 1327.89 854.04 1310.84 852.95 1310.27" fill="#c6c1c1"/>
      <polygon points="856.15 1312.09 823.12 1329.17 824.17 1329.71 857.24 1312.66 856.15 1312.09" fill="#c6c1c1"/>
      <polygon points="859.34 1314.1 826.32 1331.18 827.36 1331.72 860.44 1314.67 859.34 1314.1" fill="#c6c1c1"/>
      <polygon points="893.46 1332.04 860.44 1349.12 861.48 1349.66 894.55 1332.61 893.46 1332.04" fill="#c6c1c1"/>
      <polygon points="888.88 1329.94 855.86 1347.02 856.9 1347.56 889.98 1330.51 888.88 1329.94" fill="#c6c1c1"/>
      <polygon points="881.4 1325.91 848.38 1342.99 849.42 1343.54 882.5 1326.49 881.4 1325.91" fill="#c6c1c1"/>
      <polygon points="884.6 1327.92 851.58 1345 852.62 1345.55 885.69 1328.5 884.6 1327.92" fill="#c6c1c1"/>
      <polygon points="864.19 1317.06 851.75 1323.47 864.9 1330.27 876.99 1324.09 864.19 1317.06" fill="#b2adad"/>
      <polygon points="844.44 1327.04 832 1333.45 845.14 1340.26 857.24 1334.08 844.44 1327.04" fill="#b2adad"/>
    </g>
    <polygon points="786.95 1413.22 771.14 1413.22 703.35 1378.34 727.35 1366.76 786.95 1413.22" fill="#003f9b"/>
    <g>
      <g>
        <polygon points="837.67 1376.05 786.95 1402.64 718.2 1367.13 769.59 1340.52 837.67 1376.05" fill="#efefef"/>
        <polygon points="718.2 1367.13 718.2 1377.35 786.95 1413.22 786.95 1402.64 718.2 1367.13" fill="#c4c4c4"/>
        <polygon points="837.67 1376.05 837.67 1386.18 786.95 1413.22 786.95 1402.64 837.67 1376.05" fill="#dbdbdb"/>
      </g>
      <polygon points="837.87 1373.23 786.38 1400.47 718 1364.8 769.69 1338.05 837.87 1373.23" fill="#e0e0e0"/>
      <polygon points="770.51 1343.91 780.93 1349.28 760.04 1360.18 749.51 1354.69 770.51 1343.91" fill="#afafaf"/>
      <polygon points="749.56 1356.84 729.48 1367.32 730.58 1367.96 750.66 1357.34 749.56 1356.84" fill="#afafaf"/>
      <polygon points="752.01 1358.42 731.93 1368.9 733.04 1369.54 753.12 1358.92 752.01 1358.42" fill="#afafaf"/>
      <polygon points="754.64 1360 734.56 1370.48 735.66 1371.12 755.74 1360.5 754.64 1360" fill="#afafaf"/>
      <polygon points="757.53 1361.73 737.45 1372.21 738.56 1372.85 758.64 1362.23 757.53 1361.73" fill="#afafaf"/>
      <g>
        <g>
          <polygon points="788.83 1352.56 768.75 1363.04 769.86 1363.68 789.94 1353.06 788.83 1352.56" fill="#afafaf"/>
          <polygon points="791.52 1354.02 771.44 1364.5 772.55 1365.14 792.63 1354.52 791.52 1354.02" fill="#afafaf"/>
          <polygon points="794.39 1355.64 774.31 1366.12 775.42 1366.76 795.5 1356.14 794.39 1355.64" fill="#afafaf"/>
          <polygon points="797.3 1357.17 777.21 1367.65 778.32 1368.3 798.4 1357.67 797.3 1357.17" fill="#afafaf"/>
          <polygon points="799.99 1358.63 779.91 1369.11 781.01 1369.75 801.09 1359.13 799.99 1358.63" fill="#afafaf"/>
          <polygon points="802.86 1360.25 782.78 1370.73 783.88 1371.38 803.96 1360.75 802.86 1360.25" fill="#afafaf"/>
        </g>
        <g>
          <polygon points="805.57 1361.86 785.49 1372.34 786.6 1372.98 806.68 1362.36 805.57 1361.86" fill="#afafaf"/>
          <polygon points="808.26 1363.32 788.18 1373.8 789.29 1374.44 809.37 1363.82 808.26 1363.32" fill="#afafaf"/>
          <polygon points="811.13 1364.94 791.05 1375.42 792.16 1376.06 812.24 1365.44 811.13 1364.94" fill="#afafaf"/>
          <polygon points="814.03 1366.48 793.95 1376.96 795.06 1377.6 815.14 1366.98 814.03 1366.48" fill="#afafaf"/>
          <polygon points="816.72 1367.94 796.64 1378.41 797.75 1379.06 817.83 1368.44 816.72 1367.94" fill="#afafaf"/>
          <polygon points="819.59 1369.56 799.51 1380.04 800.62 1380.68 820.7 1370.06 819.59 1369.56" fill="#afafaf"/>
        </g>
      </g>
      <g>
        <g>
          <polygon points="766.91 1364.13 746.83 1374.61 747.93 1375.26 768.02 1364.63 766.91 1364.13" fill="#afafaf"/>
          <polygon points="769.6 1365.59 749.52 1376.07 750.63 1376.71 770.71 1366.09 769.6 1365.59" fill="#afafaf"/>
          <polygon points="772.47 1367.21 752.39 1377.69 753.5 1378.34 773.58 1367.71 772.47 1367.21" fill="#afafaf"/>
          <polygon points="775.37 1368.75 755.29 1379.23 756.4 1379.87 776.48 1369.25 775.37 1368.75" fill="#afafaf"/>
          <polygon points="778.06 1370.21 757.98 1380.69 759.09 1381.33 779.17 1370.71 778.06 1370.21" fill="#afafaf"/>
          <polygon points="780.93 1371.83 760.85 1382.31 761.96 1382.95 782.04 1372.33 780.93 1371.83" fill="#afafaf"/>
        </g>
        <g>
          <polygon points="783.64 1373.44 763.56 1383.92 764.67 1384.56 784.75 1373.94 783.64 1373.44" fill="#afafaf"/>
          <polygon points="786.34 1374.9 766.26 1385.37 767.36 1386.02 787.44 1375.4 786.34 1374.9" fill="#afafaf"/>
          <polygon points="789.21 1376.52 769.13 1387 770.23 1387.64 790.31 1377.02 789.21 1376.52" fill="#afafaf"/>
          <polygon points="792.11 1378.05 772.03 1388.53 773.13 1389.17 793.21 1378.55 792.11 1378.05" fill="#afafaf"/>
          <polygon points="794.8 1379.51 774.72 1389.99 775.82 1390.63 795.9 1380.01 794.8 1379.51" fill="#afafaf"/>
          <polygon points="797.67 1381.13 777.59 1391.61 778.69 1392.25 798.77 1381.63 797.67 1381.13" fill="#afafaf"/>
        </g>
      </g>
    </g>
    <polygon points="697.45 1372.35 685.69 1372.35 660.03 1359.27 673.84 1352.52 697.45 1372.35" fill="#003f9b"/>
    <g>
      <path d="M695.6,1369.97c1.39.73,3.67.73,5.06,0l41.19-21.47c1.39-.73,1.39-1.91,0-2.63l-24.73-12.84c-1.39-.72-3.67-.72-5.06,0l-41,21.46c-1.39.73-1.39,1.92,0,2.64l24.54,12.83Z" fill="#cecece"/>
      <path d="M670.02,1352.31v3.55s-.03.72.97,1.24l24.98,13.03s2.14.94,4.57-.11l41.52-21.65s.85-.43.82-1.32v-3.27l-72.86,8.51Z" fill="#aaa"/>
      <path d="M695.6,1366.49c1.39.73,3.67.73,5.06,0l41.19-21.47c1.39-.73,1.39-1.91,0-2.63l-24.73-12.84c-1.39-.72-3.67-.72-5.06,0l-41,21.46c-1.39.73-1.39,1.92,0,2.64l24.54,12.83Z" fill="#eaeaea"/>
      <polygon points="739.72 1344.75 705.96 1362.44 678.74 1348.26 712.71 1330.38 739.72 1344.75" fill="#5a8196"/>
      <path d="M684.22,1357.43h.24c.15-.19.38-.37.68-.53,1.21-.63,3.16-.64,4.33-.02.31.16.53.35.68.55h.19v.59h0c-.01.41-.32.81-.91,1.12-1.2.63-3.14.64-4.33.02-.6-.31-.89-.73-.88-1.15h0v-.59Z" fill="#606060"/>
      <path d="M689.46,1356.29c1.18.62,1.16,1.64-.04,2.27-1.2.63-3.14.64-4.33.02-1.19-.62-1.17-1.64.04-2.27,1.21-.63,3.16-.64,4.33-.02Z" fill="#4c4c4c"/>
      <path d="M688.66,1356.71c.74.39.73,1.03-.02,1.43s-1.98.4-2.73.01c-.75-.39-.74-1.03.02-1.43.76-.4,1.99-.4,2.73-.01Z" fill="#6b6b6b"/>
      <polygon points="735.73 1342.63 694.34 1356.39 690.9 1354.6 732.53 1340.92 735.73 1342.63" fill="#6695aa"/>
      <polygon points="730.4 1339.79 688.95 1353.57 685.5 1351.78 727.2 1338.07 730.4 1339.79" fill="#6695aa"/>
      <g>
        <polygon points="739.86 1347.27 739.86 1348.95 736.56 1350.69 736.56 1348.98 739.86 1347.27" fill="#939393"/>
        <polygon points="736.56 1348.98 736.15 1348.75 736.15 1350.5 736.56 1350.69 736.56 1348.98" fill="#7c7c7c"/>
        <polygon points="739.86 1347.27 739.4 1347.02 736.15 1348.75 736.56 1348.98 739.86 1347.27" fill="#686868"/>
      </g>
      <g>
        <polygon points="735.71 1349.44 735.71 1351.12 732.4 1352.86 732.4 1351.15 735.71 1349.44" fill="#939393"/>
        <polygon points="732.4 1351.15 731.99 1350.92 731.99 1352.67 732.4 1352.86 732.4 1351.15" fill="#7c7c7c"/>
        <polygon points="735.71 1349.44 735.24 1349.19 731.99 1350.92 732.4 1351.15 735.71 1349.44" fill="#686868"/>
      </g>
      <g>
        <polygon points="729.81 1352.42 729.81 1354.1 726.5 1355.84 726.5 1354.13 729.81 1352.42" fill="#939393"/>
        <polygon points="726.5 1354.13 726.09 1353.9 726.09 1355.65 726.5 1355.84 726.5 1354.13" fill="#7c7c7c"/>
        <polygon points="729.81 1352.42 729.34 1352.17 726.09 1353.9 726.5 1354.13 729.81 1352.42" fill="#686868"/>
      </g>
      <g>
        <path d="M722.15,1333.6l.74.36c.42.05.94.21,1.42.46l6.04,3.17,3.76,1.83v.67l-.04-.02s-.05.04-.08.06c-.33.18-1.24,0-2.01-.41l-8.92-4.65c-.62-.32-.97-.69-.91-.92v-.56Z" fill="#848484"/>
        <path d="M733.19,1338.51c.77.4,1.13.88.8,1.06s-1.24,0-2.01-.41l-8.92-4.65c-.77-.4-1.12-.88-.78-1.06.34-.18,1.26,0,2.03.41l8.88,4.66Z" fill="#6b6b6b"/>
      </g>
    </g>
    <polygon points="635.77 1329.71 609.09 1329.71 494.69 1260.54 535.2 1237.59 635.77 1329.71" fill="#003f9b"/>
  </g>
  <path d="M795.72,1322.44v-.02" fill="#1d1d1b" stroke="#fff" stroke-miterlimit="10" stroke-width="15"/>
  <path d="M611.16,1269.11c38.31-20.9,76.62-41.79,114.93-62.69" fill="none" stroke="#5d7280" stroke-miterlimit="10" stroke-width="8"/>
  <g>
    <polygon points="641.04 1331.8 503.36 1252.31 544.15 1228.76 681.82 1308.25 641.04 1331.8" fill="#d7daff"/>
    <polygon points="641.03 1336.54 503.36 1257.05 503.36 1252.29 641.03 1331.77 641.03 1336.54" fill="#aeb2f4"/>
    <polygon points="641.03 1331.77 681.82 1308.22 681.82 1312.99 641.03 1336.54 641.03 1331.77" fill="#888abf"/>
    <g>
      <g>
        <polygon points="543.81 1241.1 536.87 1237.1 543.81 1233.09 550.74 1237.1 543.81 1241.1" fill="#aeb2f4"/>
        <polygon points="552.64 1246.2 545.7 1242.19 552.64 1238.19 559.57 1242.19 552.64 1246.2" fill="#aeb2f4"/>
        <polygon points="561.46 1251.29 554.53 1247.29 561.46 1243.29 568.4 1247.29 561.46 1251.29" fill="#aeb2f4"/>
        <polygon points="570.29 1256.39 563.35 1252.39 570.29 1248.38 577.22 1252.39 570.29 1256.39" fill="#aeb2f4"/>
        <polygon points="579.11 1261.49 572.18 1257.48 579.11 1253.48 586.05 1257.48 579.11 1261.49" fill="#aeb2f4"/>
        <polygon points="587.94 1266.58 581.01 1262.58 587.94 1258.57 594.88 1262.58 587.94 1266.58" fill="#aeb2f4"/>
        <polygon points="596.77 1271.68 589.83 1267.67 596.77 1263.67 603.7 1267.67 596.77 1271.68" fill="#aeb2f4"/>
        <polygon points="605.59 1276.77 598.66 1272.77 605.59 1268.77 612.53 1272.77 605.59 1276.77" fill="#aeb2f4"/>
        <polygon points="614.42 1281.87 607.49 1277.87 614.42 1273.86 621.36 1277.87 614.42 1281.87" fill="#aeb2f4"/>
        <polygon points="623.25 1286.97 616.31 1282.96 623.25 1278.96 630.18 1282.96 623.25 1286.97" fill="#aeb2f4"/>
        <polygon points="632.07 1292.06 625.14 1288.06 632.07 1284.05 639.01 1288.06 632.07 1292.06" fill="#aeb2f4"/>
        <polygon points="640.9 1297.16 633.96 1293.15 640.9 1289.15 647.83 1293.15 640.9 1297.16" fill="#aeb2f4"/>
        <polygon points="649.73 1302.25 642.79 1298.25 649.73 1294.25 656.66 1298.25 649.73 1302.25" fill="#aeb2f4"/>
        <polygon points="658.55 1307.35 651.62 1303.35 658.55 1299.34 665.49 1303.35 658.55 1307.35" fill="#aeb2f4"/>
        <polygon points="667.38 1312.45 660.44 1308.44 667.38 1304.44 674.31 1308.44 667.38 1312.45" fill="#aeb2f4"/>
      </g>
      <g>
        <polygon points="535.14 1246.11 528.2 1242.1 535.14 1238.1 542.07 1242.1 535.14 1246.11" fill="#aeb2f4"/>
        <polygon points="543.97 1251.2 537.03 1247.2 543.97 1243.2 550.9 1247.2 543.97 1251.2" fill="#aeb2f4"/>
        <polygon points="552.79 1256.3 545.86 1252.3 552.79 1248.29 559.73 1252.3 552.79 1256.3" fill="#aeb2f4"/>
        <polygon points="561.62 1261.39 554.68 1257.39 561.62 1253.39 568.55 1257.39 561.62 1261.39" fill="#aeb2f4"/>
        <polygon points="570.45 1266.49 563.51 1262.49 570.45 1258.48 577.38 1262.49 570.45 1266.49" fill="#aeb2f4"/>
        <polygon points="579.27 1271.59 572.34 1267.58 579.27 1263.58 586.21 1267.58 579.27 1271.59" fill="#aeb2f4"/>
        <polygon points="588.1 1276.68 581.16 1272.68 588.1 1268.68 595.03 1272.68 588.1 1276.68" fill="#aeb2f4"/>
        <polygon points="596.93 1281.78 589.99 1277.78 596.93 1273.77 603.86 1277.78 596.93 1281.78" fill="#aeb2f4"/>
        <polygon points="605.75 1286.87 598.82 1282.87 605.75 1278.87 612.69 1282.87 605.75 1286.87" fill="#aeb2f4"/>
        <polygon points="614.58 1291.97 607.64 1287.97 614.58 1283.96 621.51 1287.97 614.58 1291.97" fill="#aeb2f4"/>
        <polygon points="623.4 1297.07 616.47 1293.06 623.4 1289.06 630.34 1293.06 623.4 1297.07" fill="#aeb2f4"/>
        <polygon points="632.23 1302.16 625.3 1298.16 632.23 1294.15 639.17 1298.16 632.23 1302.16" fill="#aeb2f4"/>
        <polygon points="641.06 1307.26 634.12 1303.25 641.06 1299.25 647.99 1303.26 641.06 1307.26" fill="#aeb2f4"/>
        <polygon points="649.88 1312.35 642.95 1308.35 649.88 1304.35 656.82 1308.35 649.88 1312.35" fill="#aeb2f4"/>
        <polygon points="658.71 1317.45 642.95 1308.35 649.88 1304.35 665.65 1313.45 658.71 1317.45" fill="#aeb2f4"/>
      </g>
      <g>
        <polygon points="526.47 1251.11 519.54 1247.11 526.47 1243.1 533.41 1247.11 526.47 1251.11" fill="#aeb2f4"/>
        <polygon points="535.3 1256.21 528.36 1252.2 535.3 1248.2 542.23 1252.2 535.3 1256.21" fill="#aeb2f4"/>
        <polygon points="544.12 1261.3 537.19 1257.3 544.12 1253.3 551.06 1257.3 544.12 1261.3" fill="#aeb2f4"/>
        <polygon points="552.95 1266.4 546.02 1262.4 552.95 1258.39 559.89 1262.4 552.95 1266.4" fill="#aeb2f4"/>
        <polygon points="561.78 1271.5 554.84 1267.49 561.78 1263.49 568.71 1267.49 561.78 1271.5" fill="#aeb2f4"/>
        <polygon points="570.6 1276.59 563.67 1272.59 570.6 1268.58 577.54 1272.59 570.6 1276.59" fill="#aeb2f4"/>
        <polygon points="579.43 1281.69 572.5 1277.68 579.43 1273.68 586.37 1277.68 579.43 1281.69" fill="#aeb2f4"/>
        <polygon points="588.26 1286.78 581.32 1282.78 588.26 1278.78 595.19 1282.78 588.26 1286.78" fill="#aeb2f4"/>
        <polygon points="597.08 1291.88 590.15 1287.88 597.08 1283.87 604.02 1287.88 597.08 1291.88" fill="#aeb2f4"/>
        <polygon points="605.91 1296.98 598.98 1292.97 605.91 1288.97 612.84 1292.97 605.91 1296.98" fill="#aeb2f4"/>
        <polygon points="614.74 1302.07 607.8 1298.07 614.74 1294.06 621.67 1298.07 614.74 1302.07" fill="#aeb2f4"/>
        <polygon points="623.56 1307.17 616.63 1303.16 623.56 1299.16 630.5 1303.16 623.56 1307.17" fill="#aeb2f4"/>
        <polygon points="632.39 1312.26 625.45 1308.26 632.39 1304.26 639.32 1308.26 632.39 1312.26" fill="#aeb2f4"/>
        <polygon points="641.22 1317.36 634.28 1313.36 641.22 1309.35 648.15 1313.36 641.22 1317.36" fill="#aeb2f4"/>
        <polygon points="650.04 1322.46 643.11 1318.45 650.04 1314.45 656.98 1318.45 650.04 1322.46" fill="#aeb2f4"/>
      </g>
      <g>
        <polygon points="517.8 1256.12 510.87 1252.11 517.8 1248.11 524.74 1252.11 517.8 1256.12" fill="#aeb2f4"/>
        <polygon points="526.63 1261.21 519.69 1257.21 526.63 1253.21 533.56 1257.21 526.63 1261.21" fill="#aeb2f4"/>
        <polygon points="535.46 1266.31 528.52 1262.3 535.46 1258.3 542.39 1262.3 535.46 1266.31" fill="#aeb2f4"/>
        <polygon points="544.28 1271.4 537.35 1267.4 544.28 1263.4 551.22 1267.4 544.28 1271.4" fill="#aeb2f4"/>
        <polygon points="588.41 1296.88 546.17 1272.5 553.11 1268.49 595.35 1292.88 588.41 1296.88" fill="#aeb2f4"/>
        <polygon points="561.94 1281.6 555 1277.59 561.94 1273.59 568.87 1277.59 561.94 1281.6" fill="#aeb2f4"/>
        <polygon points="570.76 1286.69 563.83 1282.69 570.76 1278.69 577.7 1282.69 570.76 1286.69" fill="#aeb2f4"/>
        <polygon points="579.59 1291.79 572.65 1287.78 579.59 1283.78 586.52 1287.78 579.59 1291.79" fill="#aeb2f4"/>
        <polygon points="588.41 1296.88 581.48 1292.88 588.41 1288.88 595.35 1292.88 588.41 1296.88" fill="#aeb2f4"/>
        <polygon points="597.24 1301.98 590.31 1297.98 597.24 1293.97 604.18 1297.98 597.24 1301.98" fill="#aeb2f4"/>
        <polygon points="606.07 1307.08 599.13 1303.07 606.07 1299.07 613 1303.07 606.07 1307.08" fill="#aeb2f4"/>
        <polygon points="614.89 1312.17 607.96 1308.17 614.89 1304.16 621.83 1308.17 614.89 1312.17" fill="#aeb2f4"/>
        <polygon points="623.72 1317.27 616.79 1313.26 623.72 1309.26 630.66 1313.26 623.72 1317.27" fill="#aeb2f4"/>
        <polygon points="632.55 1322.36 625.61 1318.36 632.55 1314.36 639.48 1318.36 632.55 1322.36" fill="#aeb2f4"/>
        <polygon points="641.37 1327.46 634.44 1323.46 641.37 1319.45 648.31 1323.46 641.37 1327.46" fill="#aeb2f4"/>
      </g>
    </g>
  </g>
  <g>
    <path d="M535.26,1404.44c11.36,2.66,13.29,11.88,9.07,20.03-.13.26-.29.51-.45.74l-13.06,19.1c-.09.13-.18.28-.26.42-4.8,8.5-11.15,12.69-19.35,11.74-.8-.09-1.57-.32-2.3-.67-6.97-3.41-7.84-8.62-5.74-14.7l.11-11.44c.09-.28,3.22.82,3.28.54l4-22c.62-3.4,3.63-5.76,6.97-5.45l16.84,1.55c.3.03.6.07.9.14Z"/>
    <path d="M461.81,1396.98v-59.89l46.51-11.68c14.4-3.62,28.32,7.81,27.98,23.12-.57,26.19-4.42,54.35-2.83,77.71,0,14.25-23.98,18.49-33.25,8.22-3.48-20.92-8.6-32.3-3.56-54.24l-34.85,16.76Z" fill="#0b151a"/>
    <path d="M555.85,1455.89c-4.33,8.71-3.13,22.9.09,29.08,8.6,2.74,15.69,2.94,20.38-.83,15.84-1.99,24.86-.35,32.9-3.27,8.55-3.1,14.32-6.18,18.24-15.44,1.48-4.12-1.32-11.49-8.47-12.15-13.24.27-25.17-.1-31.83-3.04l-12.54-20.59-19.5,17.97.72,8.26Z"/>
    <g>
      <ellipse cx="557.67" cy="1512.81" rx="5.24" ry="5.41" fill="#333"/>
      <path d="M471.25,1537.56c0,2.99,2.35,5.41,5.24,5.41s5.24-2.42,5.24-5.41-2.35-5.41-5.24-5.41-5.24,2.42-5.24,5.41Z" fill="#333"/>
      <ellipse cx="413.5" cy="1499.54" rx="5.24" ry="5.41" fill="#333"/>
      <path d="M447.42,1450.08c0,2.99,2.35,5.41,5.24,5.41s5.24-2.42,5.24-5.41-2.34-5.41-5.24-5.41-5.24,2.42-5.24,5.41Z" fill="#333"/>
      <path d="M539.49,1459.98c0,2.99,2.35,5.41,5.24,5.41s5.24-2.42,5.24-5.41-2.34-5.41-5.24-5.41-5.24,2.42-5.24,5.41Z" fill="#333"/>
      <g>
        <path d="M473.72,1482.31l-25.55-35.3v-2.34l7.52.05,32.85,33.08c2.24-.03,4.47.19,6.61.63l48.38-25.4,5.96,1.22v2.34l-42.58,28.86c.74,1.27,1.09,2.61,1.05,3.94l55.44,17.26v2.34l-3.83,4.48-59.17-15.24c-1.83.83-3.85,1.44-5.96,1.82l-14.11,37.51-8.33-.79v-2.34l6.01-35.95c-.91-.38-1.78-.8-2.59-1.28-.81-.48-1.51-1-2.15-1.54l-64.16,3.59-1.32-4.97v-2.33l62.87-6.08c.64-1.26,1.67-2.46,3.06-3.56Z" fill="#333"/>
        <path d="M473.72,1472.95l-25.55-28.28,7.52-2.28,32.85,26.06c2.24-.03,4.47.19,6.61.63l48.38-18.38,5.96,3.56-42.58,21.84c.74,1.27,1.09,2.61,1.05,3.94l55.44,26.62-3.83,4.48-59.17-22.26c-1.83.83-3.85,1.44-5.96,1.82l-14.11,44.53-8.33-.79,6.01-45.3c-.91-.38-1.78-.8-2.59-1.28-.81-.48-1.51-1-2.15-1.54l-64.16,10.61-1.32-4.97,62.87-15.44c.64-1.26,1.67-2.46,3.06-3.56Z" fill="#999"/>
      </g>
      <g>
        <path d="M480.57,1428.23c.44-.47,1-.91,1.67-1.31,3.99-2.38,10.45-2.38,14.44,0,.67.4,1.22.84,1.67,1.31h1.32v49.68c0,1.56-1,3.12-2.99,4.31-3.99,2.38-10.45,2.38-14.44,0-1.99-1.19-2.99-2.75-2.99-4.31v-49.68h1.32Z" fill="#4d4d4d"/>
        <path d="M482.24,1423.92c-3.99,2.38-3.99,6.24,0,8.62s10.45,2.38,14.44,0c3.99-2.38,3.99-6.24,0-8.62-3.99-2.38-10.45-2.38-14.44,0Z" fill="#4d4d4d"/>
        <path d="M476.43,1393.35c1.46-1.54,3.73-2.88,6.9-3.77,4-1.12,8.25-1.12,12.26,0,3.17.89,5.44,2.23,6.9,3.77h1.94v37.77c0,3.17-2.81,6.33-8.42,8.06-4.26,1.31-8.83,1.31-13.09,0-5.61-1.73-8.42-4.89-8.42-8.06v-37.77h1.94Z" fill="#999"/>
        <path d="M482.91,1385.3c-11.22,3.45-11.22,12.66,0,16.11,4.26,1.31,8.84,1.31,13.09,0,11.22-3.45,11.22-12.66,0-16.11-4.26-1.31-8.83-1.31-13.09,0Z" fill="#4d4d4d"/>
      </g>
    </g>
    <g>
      <path d="M466.73,1478.47l-70.69-42.43c-1.17-.71-1.9-2.21-1.89-4.36l.03-9.92c.01-4.29,2.94-9.49,6.53-11.62l78.4-46.49c1.8-1.07,3.42-1.16,4.6-.46l70.69,42.43-87.66,72.85Z"/>
      <path d="M549.73,1431.52l-78.4,46.49c-3.6,2.13-6.5.39-6.49-3.9l.03-9.92c.01-4.29,2.94-9.49,6.53-11.62l78.4-46.49c3.6-2.13,6.5-.39,6.49,3.9l-.03,9.92c-.01,4.29-2.94,9.49-6.53,11.62Z" fill="#333"/>
    </g>
    <path d="M589.86,1451.22c0,14.25-26.97,20.71-36.24,10.44-3.48-20.92-5.61-34.52-.57-56.46l-58.45,28.11-52.98-52.01,123.09-30.91c14.4-3.62,28.32,7.81,27.98,23.12-.57,26.19-4.42,54.35-2.83,77.71Z" fill="#1e3a47"/>
    <path id="right-hand" d="M567.77,1335.19l8.61-9.75,5.3-1.45,12.33-10.44,5.88-3.34,2.32.09h3.23c3.06.26,3.56-3.17.58-3.87l-5.8-.79-6.37,1.58-.33-1.58,7.07-4.8,4.25-1.08c1.93.01,3-3.07.21-4.1l-4.16-.5-2.65-1.6c-1.34-.81-2.9-1.12-4.43-.89l-2.85.44-3.74-2.43c-1.25-.81-2.85-.79-4.08.06l-5.93,4.08-6.73,6.13s-4.86-.14-7.76,3.28c-1.84,2.18-1.32,9-1.32,9l-9.11,9.91,15.48,12.06Z" fill="#ffb294"/>
    <path id="left-hand" d="M497.33,1265.51l13.23-2.53,15.95-13.38,12.54-4.99,8.11-1.01c.6-.07,1.21.02,1.76.26l1.68.75h2.08c1.37,0,2.61.85,3.14,2.16l2.28,1.16c1.07.87.62,2.92-.72,3.15h-2.84l-4.93,1.53-7.82,4.43-4.22,8.47s.96,1.83,1.32,1.93c3.15.86,8.61.43,8.61.43l2.81-.51c2.57.68,3.97,2.74,1.57,3.94l-3.77,1.67-14.9,4.23h-15.4l-15.65,4.36-4.84-16.04Z" fill="#ffb294"/>
    <path id="left-arm" d="M502.17,1260.62c8.98,2.35,13.62,23.49,2.03,29.31l-71.86,7.53v-39.01l69.83,2.17Z" fill="#33485b"/>
    <path d="M509.2,1306.19c-8.97,19.85-17.34,51.58-13.11,68.26,4.01,15.86,14.47,41.58,2.58,56.97-17.73,15.65-82.79-8.21-87.85-41.59-2.21-28.73-.66-60.56-2.15-97.51,0,0-2.23-31.71,20.36-40.41,6.51-2.51,19.91,1.43,19.91,1.43l36.65,30.77,13.07,4.48,10.54,17.59Z" fill="#33485b"/>
    <path id="head" d="M491.37,1262.98l11.08-8.21c5.09-3.42,6.25-14.07,6.41-21.83l.34-16.28-3.54-10-36.57,1.37-7.1,25.98,6.52,24.59,22.86,4.38Z" fill="#ffb294"/>
    <path id="neck" d="M489.97,1274.47l4.35-19.83-28.94-7.87-8.17,12.14c7.39,10.32,17.63,15.03,32.76,15.56Z" fill="#ffb294"/>
    <path d="M496.08,1284.12l-5.6-12.25c-14.89-3.54-26.92-11.91-29.01-18.52l-10.39,1.28,2.04,8.16,42.96,21.33Z" fill="#fff"/>
    <path d="M502.17,1295.8s-27.93-8.85-46.85-24.6c-9.59-7.98-8.74-16.2-8.74-16.2,1.31-1.97,6.31-3.28,11.01-1.65,1.33,12.51,25.11,21.52,36.05,24.95l8.53,17.49Z" fill="#1e3a47"/>
    <path id="hair" d="M509.14,1219.32l-8.69,8.6c-1.41,1.4-2.28,3.29-2.42,5.3l-.59,8.11-4.78,4.49.46,8.14s-7.94,10.99-22.72,5.5c-10.29-3.82-8.7-5.75-12.05-24.26-2.11-11.65-2.34-23.12,8.26-32.31,9.65-8.36,30.47-8.1,38.57-.38,4.22,4.03,7.29,11.53,3.95,16.82Z"/>
    <path id="right-arm" d="M577.54,1333.14c3.23-9.24-8.44-23.61-18.38-19.25l-22.85,19.25-27.12-26.95s-9.14-3.34-17.83,6.42c-17.09,19.17-4.72,36.96-4.72,36.96,15.07,10.44,30,19.47,44.6,25.45,5.84,2.39,12.52.89,16.91-3.76,11.64-12.37,21.54-25.05,29.39-38.11Z" fill="#33485b"/>
    <g>
      <path d="M445.03,1307.56l1.43,64.41,16.06,85.43-70.8-42.24c-.38-.23-.71-.52-1-.9-16.57-21.32-33.76-59.24-28.12-137.01.32-4.37,3.28-9.33,6.8-11.43,1.88-1.12,3.59-1.22,4.83-.48,0-.01,70.8,42.23,70.8,42.23Z"/>
      <path d="M477.56,1451.01l-9.79,5.84c-2.53,1.51-4.89,1.39-6.24-.35-16.57-21.32-33.76-59.24-28.12-137.01.32-4.37,3.28-9.33,6.8-11.43,3.58-2.13,6.55-.61,6.8,3.5,3.12,49.86,11.61,93.94,35.18,126.87,2.17,3.03-.4,10.06-4.63,12.58Z" fill="#333"/>
    </g>
  </g>
  <g id="unsent-message">
    <polygon points="1787.46 983.27 1403.51 761.59 1398.4 738.24 1782.35 959.91 1787.46 983.27" fill="#fff"/>
  </g>
</svg>